<svg xmlns="http://www.w3.org/2000/svg" xmlns:xlink="http://www.w3.org/1999/xlink" contentStyleType="text/css" data-diagram-type="DESCRIPTION" height="523px" preserveAspectRatio="none" style="width:1386px;height:523px;background:#FFFFFF;" version="1.1" viewBox="0 0 1386 523" width="1386px" zoomAndPan="magnify"><title>&#1040;&#1088;&#1093;&#1080;&#1090;&#1077;&#1082;&#1090;&#1091;&#1088;&#1072; &#1073;&#1080;&#1073;&#1083;&#1080;&#1086;&#1090;&#1077;&#1082;&#1080; DeviceTypesImportExport</title><defs/><g><g class="title" data-source-line="11"><text fill="#000000" font-family="sans-serif" font-size="14" font-weight="bold" lengthAdjust="spacing" textLength="413.4512" x="479.6487" y="22.9951">&#1040;&#1088;&#1093;&#1080;&#1090;&#1077;&#1082;&#1090;&#1091;&#1088;&#1072; &#1073;&#1080;&#1073;&#1083;&#1080;&#1086;&#1090;&#1077;&#1082;&#1080; DeviceTypesImportExport</text></g><!--cluster ??????????-??????????--><g class="cluster" data-entity="&#1055;&#1088;&#1080;&#1083;&#1086;&#1078;&#1077;&#1085;&#1080;&#1077;-&#1080;&#1085;&#1090;&#1077;&#1075;&#1088;&#1072;&#1090;&#1086;&#1088;" data-source-line="13" data-uid="ent0002" id="cluster_&#1055;&#1088;&#1080;&#1083;&#1086;&#1078;&#1077;&#1085;&#1080;&#1077;-&#1080;&#1085;&#1090;&#1077;&#1075;&#1088;&#1072;&#1090;&#1086;&#1088;"><path d="M687,43.2969 L889.2637,43.2969 A3.75,3.75 0 0 1 891.7637,45.7969 L898.7637,65.5938 L948,65.5938 A2.5,2.5 0 0 1 950.5,68.0938 L950.5,144.7969 A2.5,2.5 0 0 1 948,147.2969 L687,147.2969 A2.5,2.5 0 0 1 684.5,144.7969 L684.5,45.7969 A2.5,2.5 0 0 1 687,43.2969" fill="none" style="stroke:#000000;stroke-width:1.5;"/><line style="stroke:#000000;stroke-width:1.5;" x1="684.5" x2="898.7637" y1="65.5938" y2="65.5938"/><text fill="#000000" font-family="sans-serif" font-size="14" font-weight="bold" lengthAdjust="spacing" textLength="201.2637" x="688.5" y="58.292">&#1055;&#1088;&#1080;&#1083;&#1086;&#1078;&#1077;&#1085;&#1080;&#1077;-&#1080;&#1085;&#1090;&#1077;&#1075;&#1088;&#1072;&#1090;&#1086;&#1088;</text></g><!--cluster device-template-library--><g class="cluster" data-entity="device-template-library" data-source-line="17" data-uid="ent0004" id="cluster_device-template-library"><path d="M230,196.2969 L417.0879,196.2969 A3.75,3.75 0 0 1 419.5879,198.7969 L426.5879,218.5938 L1032,218.5938 A2.5,2.5 0 0 1 1034.5,221.0938 L1034.5,411.7969 A2.5,2.5 0 0 1 1032,414.2969 L230,414.2969 A2.5,2.5 0 0 1 227.5,411.7969 L227.5,198.7969 A2.5,2.5 0 0 1 230,196.2969" fill="none" style="stroke:#000000;stroke-width:1.5;"/><line style="stroke:#000000;stroke-width:1.5;" x1="227.5" x2="426.5879" y1="218.5938" y2="218.5938"/><text fill="#000000" font-family="sans-serif" font-size="14" font-weight="bold" lengthAdjust="spacing" textLength="186.0879" x="231.5" y="211.292">device-template-library</text></g><!--entity Facade--><g class="entity" data-entity="Facade" data-source-line="14" data-uid="ent0003" id="entity_Facade"><rect fill="#F8FAFC" height="52.5938" rx="2.5" ry="2.5" style="stroke:#1F2937;stroke-width:0.5;" width="233.5" x="700.5" y="78.2969"/><text fill="#000000" font-family="sans-serif" font-size="14" lengthAdjust="spacing" textLength="213.5" x="710.5" y="101.292">DeviceTemplateLibraryFacade</text><text fill="#000000" font-family="sans-serif" font-size="14" lengthAdjust="spacing" textLength="80.3496" x="777.0752" y="117.5889">&#1082;&#1072;&#1082; Facade</text></g><!--entity Archive--><g class="entity" data-entity="Archive" data-source-line="18" data-uid="ent0005" id="entity_Archive"><rect fill="#F8FAFC" height="52.5938" rx="2.5" ry="2.5" style="stroke:#1F2937;stroke-width:0.5;" width="192.6895" x="586" y="345.2969"/><text fill="#000000" font-family="sans-serif" font-size="14" lengthAdjust="spacing" textLength="172.6895" x="596" y="368.292">DttArchiveReader/Writer</text><text fill="#000000" font-family="sans-serif" font-size="14" lengthAdjust="spacing" textLength="151.7373" x="606.4761" y="384.5889">ZIP + YAML + Groovy</text></g><!--entity Validation--><g class="entity" data-entity="Validation" data-source-line="19" data-uid="ent0006" id="entity_Validation"><rect fill="#F8FAFC" height="52.5938" rx="2.5" ry="2.5" style="stroke:#1F2937;stroke-width:0.5;" width="208.2207" x="243.5" y="231.2969"/><text fill="#000000" font-family="sans-serif" font-size="14" lengthAdjust="spacing" textLength="188.2207" x="253.5" y="254.292">TemplateValidationService</text><text fill="#000000" font-family="sans-serif" font-size="14" lengthAdjust="spacing" textLength="149.9053" x="272.6577" y="270.5889">&#1074;&#1072;&#1083;&#1080;&#1076;&#1072;&#1094;&#1080;&#1103; &#1096;&#1072;&#1073;&#1083;&#1086;&#1085;&#1072;</text></g><!--entity Assembly--><g class="entity" data-entity="Assembly" data-source-line="20" data-uid="ent0007" id="entity_Assembly"><rect fill="#F8FAFC" height="52.5938" rx="2.5" ry="2.5" style="stroke:#1F2937;stroke-width:0.5;" width="205.4795" x="814" y="345.2969"/><text fill="#000000" font-family="sans-serif" font-size="14" lengthAdjust="spacing" textLength="185.4795" x="824" y="368.292">TemplateAssemblyService</text><text fill="#000000" font-family="sans-serif" font-size="14" lengthAdjust="spacing" textLength="153.1797" x="840.1499" y="384.5889">&#1089;&#1073;&#1086;&#1088;&#1082;&#1072; profile/branch</text></g><!--entity Parsers--><g class="entity" data-entity="Parsers" data-source-line="21" data-uid="ent0008" id="entity_Parsers"><rect fill="#F8FAFC" height="52.5938" rx="2.5" ry="2.5" style="stroke:#1F2937;stroke-width:0.5;" width="213.3271" x="487" y="231.2969"/><text fill="#000000" font-family="sans-serif" font-size="14" lengthAdjust="spacing" textLength="193.3271" x="497" y="254.292">Profile/Branch JSON Parsers</text><text fill="#000000" font-family="sans-serif" font-size="14" lengthAdjust="spacing" textLength="146.2275" x="520.5498" y="270.5889">parse/generate JSON</text></g><!--entity Canonical--><g class="entity" data-entity="Canonical" data-source-line="22" data-uid="ent0009" id="entity_Canonical"><rect fill="#F8FAFC" height="52.5938" rx="2.5" ry="2.5" style="stroke:#1F2937;stroke-width:0.5;" width="283.3887" x="735" y="231.2969"/><text fill="#000000" font-family="sans-serif" font-size="14" lengthAdjust="spacing" textLength="134.8252" x="809.2817" y="254.292">Canonical mappers</text><text fill="#000000" font-family="sans-serif" font-size="14" lengthAdjust="spacing" textLength="263.3887" x="745" y="270.5889">archive &lt;-&gt; canonical &lt;-&gt; projection</text></g><!--entity DTT--><g class="entity" data-entity="DTT" data-source-line="25" data-uid="ent0010" id="entity_DTT"><path d="M630.5,471.2969 C630.5,461.2969 682.5137,461.2969 682.5137,461.2969 C682.5137,461.2969 734.5273,461.2969 734.5273,471.2969 L734.5273,496.5938 C734.5273,506.5938 682.5137,506.5938 682.5137,506.5938 C682.5137,506.5938 630.5,506.5938 630.5,496.5938 L630.5,471.2969" fill="#EEF2FF" style="stroke:#1F2937;stroke-width:0.5;"/><path d="M630.5,471.2969 C630.5,481.2969 682.5137,481.2969 682.5137,481.2969 C682.5137,481.2969 734.5273,481.2969 734.5273,471.2969" fill="none" style="stroke:#1F2937;stroke-width:0.5;"/><text fill="#000000" font-family="sans-serif" font-size="14" lengthAdjust="spacing" textLength="84.0273" x="640.5" y="498.292">DTT archive</text></g><!--entity MODELS--><g class="entity" data-entity="MODELS" data-source-line="26" data-uid="ent0011" id="entity_MODELS"><rect fill="#F1F1F1" height="32.2969" rx="2.5" ry="2.5" style="stroke:#181818;stroke-width:0.5;" width="275.0752" x="781" y="469.7969"/><rect fill="#F1F1F1" height="32.2969" rx="2.5" ry="2.5" style="stroke:#181818;stroke-width:0.5;" width="275.0752" x="777" y="465.7969"/><text fill="#000000" font-family="sans-serif" font-size="14" lengthAdjust="spacing" textLength="259.0752" x="785" y="486.792">EquipmentProfile / BranchEquipment</text></g><!--entity JSON--><g class="entity" data-entity="JSON" data-source-line="27" data-uid="ent0012" id="entity_JSON"><rect fill="#F1F1F1" height="32.2969" rx="2.5" ry="2.5" style="stroke:#181818;stroke-width:0.5;" width="200.7275" x="11" y="357.7969"/><rect fill="#F1F1F1" height="32.2969" rx="2.5" ry="2.5" style="stroke:#181818;stroke-width:0.5;" width="200.7275" x="7" y="353.7969"/><text fill="#000000" font-family="sans-serif" font-size="14" lengthAdjust="spacing" textLength="184.7275" x="15" y="374.792">profile JSON / branch JSON</text></g><!--link Facade to Archive--><g class="link" data-entity-1="Facade" data-entity-2="Archive" data-source-line="29" data-uid="lnk13" id="link_Facade_Archive"><path d="M934.64,122.8369 C973.25,134.6369 1012.21,154.5869 1035.5,188.2969 C1059.75,223.4069 1061.84,250.7269 1035.5,284.2969 C1031.43,289.4769 888.2954,323.3534 785.2054,347.2234" fill="none" id="Facade-to-Archive" style="stroke:#4B5563;stroke-width:1;"/><polygon fill="#4B5563" points="779.36,348.5769,789.0303,350.4436,784.2311,347.449,787.2257,342.6498,779.36,348.5769" style="stroke:#4B5563;stroke-width:1;"/><text fill="#000000" font-family="sans-serif" font-size="13" lengthAdjust="spacing" textLength="96.6494" x="1054.5" y="262.3638">read/write DTT</text></g><!--link Facade to Validation--><g class="link" data-entity-1="Facade" data-entity-2="Validation" data-source-line="30" data-uid="lnk14" id="link_Facade_Validation"><path d="M700.23,125.1369 C631.56,138.5269 543.97,159.2269 469.5,188.2969 C440.42,199.6469 414.9102,213.7227 391.6202,228.0527" fill="none" id="Facade-to-Validation" style="stroke:#4B5563;stroke-width:1;"/><polygon fill="#4B5563" points="386.51,231.1969,396.2714,229.8873,390.7685,228.5767,392.0791,223.0738,386.51,231.1969" style="stroke:#4B5563;stroke-width:1;"/><text fill="#000000" font-family="sans-serif" font-size="13" lengthAdjust="spacing" textLength="52.1968" x="534.5" y="176.3638">validate</text></g><!--link Facade to Assembly--><g class="link" data-entity-1="Facade" data-entity-2="Assembly" data-source-line="31" data-uid="lnk15" id="link_Facade_Assembly"><path d="M934.8,114.8569 C1033.72,125.3169 1163.94,146.7269 1194.5,188.2969 C1219.77,222.6769 1218.61,249.0969 1194.5,284.2969 C1174.08,314.1169 1095.5996,336.3628 1025.1096,351.3028" fill="none" id="Facade-to-Assembly" style="stroke:#4B5563;stroke-width:1;"/><polygon fill="#4B5563" points="1019.24,352.5469,1028.8738,354.5939,1024.1313,351.5102,1027.2151,346.7677,1019.24,352.5469" style="stroke:#4B5563;stroke-width:1;"/><text fill="#000000" font-family="sans-serif" font-size="13" lengthAdjust="spacing" textLength="165.2485" x="1213.5" y="262.3638">assemble/import/preview</text></g><!--link Facade to Parsers--><g class="link" data-entity-1="Facade" data-entity-2="Parsers" data-source-line="32" data-uid="lnk16" id="link_Facade_Parsers"><path d="M779.5,131.4169 C738.31,159.1769 677.9252,199.8831 636.6552,227.7031" fill="none" id="Facade-to-Parsers" style="stroke:#4B5563;stroke-width:1;"/><polygon fill="#4B5563" points="631.68,231.0569,641.3786,229.343,635.826,228.2621,636.9069,222.7095,631.68,231.0569" style="stroke:#4B5563;stroke-width:1;"/><text fill="#000000" font-family="sans-serif" font-size="13" lengthAdjust="spacing" textLength="187.5225" x="732.5" y="176.3638">parse/toJson/exportFromJson</text></g><!--link Archive to DTT--><g class="link" data-entity-1="Archive" data-entity-2="DTT" data-source-line="33" data-uid="lnk17" id="link_Archive_DTT"><path d="M682.5,398.3069 C682.5,417.3469 682.5,437.0869 682.5,455.1269" fill="none" id="Archive-to-DTT" style="stroke:#4B5563;stroke-width:1;"/><polygon fill="#4B5563" points="682.5,461.1269,686.5,452.1269,682.5,456.1269,678.5,452.1269,682.5,461.1269" style="stroke:#4B5563;stroke-width:1;"/></g><!--link Assembly to MODELS--><g class="link" data-entity-1="Assembly" data-entity-2="MODELS" data-source-line="34" data-uid="lnk18" id="link_Assembly_MODELS"><path d="M916.5,398.3069 C916.5,418.9969 916.5,441.5969 916.5,459.6369" fill="none" id="Assembly-to-MODELS" style="stroke:#4B5563;stroke-width:1;"/><polygon fill="#4B5563" points="916.5,465.6369,920.5,456.6369,916.5,460.6369,912.5,456.6369,916.5,465.6369" style="stroke:#4B5563;stroke-width:1;"/></g><!--link Parsers to JSON--><g class="link" data-entity-1="Parsers" data-entity-2="JSON" data-source-line="35" data-uid="lnk19" id="link_Parsers_JSON"><path d="M486.98,283.4469 C394.86,304.7669 269.9256,333.6743 188.9756,352.4043" fill="none" id="Parsers-to-JSON" style="stroke:#4B5563;stroke-width:1;"/><polygon fill="#4B5563" points="183.13,353.7569,192.8,355.6251,188.0013,352.6298,190.9967,347.831,183.13,353.7569" style="stroke:#4B5563;stroke-width:1;"/></g><!--link Canonical to Archive--><g class="link" data-entity-1="Canonical" data-entity-2="Archive" data-source-line="36" data-uid="lnk20" id="link_Canonical_Archive"><path d="M831.99,284.4969 C800.45,302.7069 763.4966,324.0377 731.9966,342.2177" fill="none" id="Canonical-to-Archive" style="stroke:#4B5563;stroke-width:1;stroke-dasharray:7.0,7.0;"/><polygon fill="#4B5563" points="726.8,345.2169,736.5944,344.1825,731.1305,342.7175,732.5955,337.2537,726.8,345.2169" style="stroke:#4B5563;stroke-width:1;"/></g><!--link Canonical to Assembly--><g class="link" data-entity-1="Canonical" data-entity-2="Assembly" data-source-line="37" data-uid="lnk21" id="link_Canonical_Assembly"><path d="M885.68,284.4969 C892.18,302.7069 898.85,321.3871 905.35,339.5671" fill="none" id="Canonical-to-Assembly" style="stroke:#4B5563;stroke-width:1;stroke-dasharray:7.0,7.0;"/><polygon fill="#4B5563" points="907.37,345.2169,908.1065,335.3956,905.6867,340.5088,900.5735,338.0889,907.37,345.2169" style="stroke:#4B5563;stroke-width:1;"/></g><!--SRC=[VLFTRjCm5BxFKnnrbwYBsFWNGkhM3MtQs4Gh430ktEIa3NFjO7ljAeGqXa3SmHlm2XimL0rjpv2y4SUEcsOJuYAExVDzt_dEiQttKv4nnORGOz5-Nya34QzABXMC1wd1G5VnI0upAL2OZfbm18MHOQBFwn0zOB4Sfw8F2UEw7eanOGVSTF7Gj7ZQ5qFIWOW6L3LKIoavBhCltEhTldrdkHPSdULVaIf6vM4tawNxotV_2RjMpq9oBs59L8EscM4zfl7_WXNgkXvYifGaGM1IG_t8lnL7nQTyMXpdP_bvSLnyB8xo4yXFyobzVsYyB4Fv5DeuIYFiJZBK6-HMcRL3EmP1HZbO7w6HVoVsb6YN-MyYNT3yh4d3XTFuQQLfTbaSDU1T0F3AA-8muypWLjfJJ4tMMSHYt1EKyoG_XtBv6fZsq-1zBMFi59h6IpHvgJ7JDwQbea4wmgT8J1K-LtGxr9vukR4BD-15QtkBVe-LbAE9o-3HbZjpzOpnD6OcbQA3oYOZPp_8cUtDBwhdCpNlAnHVQElKLNwHdpYjER4krz8QXpq-gSIA3yIZbjXo8LCoIJc6L8I81gKbJx0YkpwyuiAmsTbv0hjCQLHwpvwxnh2F0XNbSK4du06Mlyg456d4E0nPbZaMAok6Xyr745LXko8lR-Yra7ydKt5j_sD_kw3HxdR1QpGiZDP193alcHeQQsyFqim-76yUGYZjLm77szvfhsrrhb9zDyewG-ZDgtOKEmc2yb90anpxquC7zCnP78xjOJj3DSpyL0WsAXTuHSJtcyAid6AOkkiUPefk6uxhQDzS0fVjDt9JIn6YUndhIWxjCfWPimphfyfXDtpbCoMxvIgR7zRYObNRzLqlz1S0]--></g></svg>