<?xml version="1.0" encoding="UTF-8" standalone="no"?>
<!DOCTYPE svg PUBLIC "-//W3C//DTD SVG 1.1//EN"
 "http://www.w3.org/Graphics/SVG/1.1/DTD/svg11.dtd">
<!-- Generated by graphviz version 2.42.4 (0)
 -->
<!-- Title: G Pages: 1 -->
<svg width="866pt" height="304pt"
 viewBox="0.00 0.00 866.00 304.00" xmlns="http://www.w3.org/2000/svg" xmlns:xlink="http://www.w3.org/1999/xlink">
<g id="graph0" class="graph" transform="scale(1 1) rotate(0) translate(4 300)">
<title>G</title>
<polygon fill="white" stroke="transparent" points="-4,4 -4,-300 862,-300 862,4 -4,4"/>
<!-- app -->
<g id="node1" class="node">
<title>app</title>
<path fill="#f8fafc" stroke="#1f2937" d="M178,-146C178,-146 12,-146 12,-146 6,-146 0,-140 0,-134 0,-134 0,-116 0,-116 0,-110 6,-104 12,-104 12,-104 178,-104 178,-104 184,-104 190,-110 190,-116 190,-116 190,-134 190,-134 190,-140 184,-146 178,-146"/>
<text text-anchor="middle" x="95" y="-128.2" font-family="DejaVu Sans" font-size="11.00">Приложение&#45;интегратор</text>
<text text-anchor="middle" x="95" y="-116.2" font-family="DejaVu Sans" font-size="11.00">DeviceTemplateLibraryFacade</text>
</g>
<!-- rw -->
<g id="node2" class="node">
<title>rw</title>
<path fill="#f8fafc" stroke="#1f2937" d="M550.5,-296C550.5,-296 405.5,-296 405.5,-296 399.5,-296 393.5,-290 393.5,-284 393.5,-284 393.5,-266 393.5,-266 393.5,-260 399.5,-254 405.5,-254 405.5,-254 550.5,-254 550.5,-254 556.5,-254 562.5,-260 562.5,-266 562.5,-266 562.5,-284 562.5,-284 562.5,-290 556.5,-296 550.5,-296"/>
<text text-anchor="middle" x="478" y="-278.2" font-family="DejaVu Sans" font-size="11.00">DttArchiveReader / Writer</text>
<text text-anchor="middle" x="478" y="-266.2" font-family="DejaVu Sans" font-size="11.00">ZIP + YAML + Groovy</text>
</g>
<!-- app&#45;&gt;rw -->
<g id="edge1" class="edge">
<title>app&#45;&gt;rw</title>
<path fill="none" stroke="#4b5563" d="M176,-146.21C176,-184.83 176,-262.67 176,-262.67 176,-262.67 383.47,-262.67 383.47,-262.67"/>
<polygon fill="#4b5563" stroke="#4b5563" points="383.47,-266.17 393.47,-262.67 383.47,-259.17 383.47,-266.17"/>
<text text-anchor="middle" x="287.5" y="-206" font-family="DejaVu Sans" font-size="10.00">read / write</text>
</g>
<!-- val -->
<g id="node3" class="node">
<title>val</title>
<path fill="#f8fafc" stroke="#1f2937" d="M551.5,-120C551.5,-120 404.5,-120 404.5,-120 398.5,-120 392.5,-114 392.5,-108 392.5,-108 392.5,-90 392.5,-90 392.5,-84 398.5,-78 404.5,-78 404.5,-78 551.5,-78 551.5,-78 557.5,-78 563.5,-84 563.5,-90 563.5,-90 563.5,-108 563.5,-108 563.5,-114 557.5,-120 551.5,-120"/>
<text text-anchor="middle" x="478" y="-102.2" font-family="DejaVu Sans" font-size="11.00">TemplateValidationService</text>
<text text-anchor="middle" x="478" y="-90.2" font-family="DejaVu Sans" font-size="11.00">валидация шаблона</text>
</g>
<!-- app&#45;&gt;val -->
<g id="edge2" class="edge">
<title>app&#45;&gt;val</title>
<path fill="none" stroke="#4b5563" d="M190.17,-114.67C190.17,-114.67 382.47,-114.67 382.47,-114.67"/>
<polygon fill="#4b5563" stroke="#4b5563" points="382.47,-118.17 392.47,-114.67 382.47,-111.17 382.47,-118.17"/>
<text text-anchor="middle" x="287.5" y="-102" font-family="DejaVu Sans" font-size="10.00">validate</text>
</g>
<!-- asm -->
<g id="node4" class="node">
<title>asm</title>
<path fill="#f8fafc" stroke="#1f2937" d="M551,-205C551,-205 405,-205 405,-205 399,-205 393,-199 393,-193 393,-193 393,-175 393,-175 393,-169 399,-163 405,-163 405,-163 551,-163 551,-163 557,-163 563,-169 563,-175 563,-175 563,-193 563,-193 563,-199 557,-205 551,-205"/>
<text text-anchor="middle" x="478" y="-187.2" font-family="DejaVu Sans" font-size="11.00">TemplateAssemblyService</text>
<text text-anchor="middle" x="478" y="-175.2" font-family="DejaVu Sans" font-size="11.00">сборка profile / branch</text>
</g>
<!-- app&#45;&gt;asm -->
<g id="edge3" class="edge">
<title>app&#45;&gt;asm</title>
<path fill="none" stroke="#4b5563" d="M183,-146.3C183,-163.2 183,-184 183,-184 183,-184 382.67,-184 382.67,-184"/>
<polygon fill="#4b5563" stroke="#4b5563" points="382.67,-187.5 392.67,-184 382.67,-180.5 382.67,-187.5"/>
<text text-anchor="middle" x="287.5" y="-154" font-family="DejaVu Sans" font-size="10.00">assemble / import / preview</text>
</g>
<!-- parsers -->
<g id="node5" class="node">
<title>parsers</title>
<path fill="#f8fafc" stroke="#1f2937" d="M559,-42C559,-42 397,-42 397,-42 391,-42 385,-36 385,-30 385,-30 385,-12 385,-12 385,-6 391,0 397,0 397,0 559,0 559,0 565,0 571,-6 571,-12 571,-12 571,-30 571,-30 571,-36 565,-42 559,-42"/>
<text text-anchor="middle" x="478" y="-24.2" font-family="DejaVu Sans" font-size="11.00">Profile / Branch JSON parsers</text>
<text text-anchor="middle" x="478" y="-12.2" font-family="DejaVu Sans" font-size="11.00">parse / generate</text>
</g>
<!-- app&#45;&gt;parsers -->
<g id="edge4" class="edge">
<title>app&#45;&gt;parsers</title>
<path fill="none" stroke="#4b5563" d="M190.05,-109.33C275.94,-109.33 389,-109.33 389,-109.33 389,-109.33 389,-52.38 389,-52.38"/>
<polygon fill="#4b5563" stroke="#4b5563" points="392.5,-52.38 389,-42.38 385.5,-52.38 392.5,-52.38"/>
<text text-anchor="middle" x="287.5" y="-37" font-family="DejaVu Sans" font-size="10.00">parse / toJson / export</text>
</g>
<!-- dtt -->
<g id="node7" class="node">
<title>dtt</title>
<path fill="#eef2ff" stroke="#1f2937" d="M789,-291.98C789,-294.06 768.83,-295.75 744,-295.75 719.17,-295.75 699,-294.06 699,-291.98 699,-291.98 699,-258.02 699,-258.02 699,-255.94 719.17,-254.25 744,-254.25 768.83,-254.25 789,-255.94 789,-258.02 789,-258.02 789,-291.98 789,-291.98"/>
<path fill="none" stroke="#1f2937" d="M789,-291.98C789,-289.9 768.83,-288.21 744,-288.21 719.17,-288.21 699,-289.9 699,-291.98"/>
<text text-anchor="middle" x="744" y="-272.2" font-family="DejaVu Sans" font-size="11.00">.dtt archive</text>
</g>
<!-- rw&#45;&gt;dtt -->
<g id="edge5" class="edge">
<title>rw&#45;&gt;dtt</title>
<path fill="none" stroke="#4b5563" d="M562.53,-275C562.53,-275 688.78,-275 688.78,-275"/>
<polygon fill="#4b5563" stroke="#4b5563" points="688.78,-278.5 698.78,-275 688.78,-271.5 688.78,-278.5"/>
</g>
<!-- models -->
<g id="node8" class="node">
<title>models</title>
<polygon fill="#eef2ff" stroke="#1f2937" points="858,-202 634,-202 630,-198 630,-166 854,-166 858,-170 858,-202"/>
<polyline fill="none" stroke="#1f2937" points="854,-198 630,-198 "/>
<polyline fill="none" stroke="#1f2937" points="854,-198 854,-166 "/>
<polyline fill="none" stroke="#1f2937" points="854,-198 858,-202 "/>
<text text-anchor="middle" x="744" y="-181.2" font-family="DejaVu Sans" font-size="11.00">EquipmentProfile / BranchEquipment</text>
</g>
<!-- asm&#45;&gt;models -->
<g id="edge6" class="edge">
<title>asm&#45;&gt;models</title>
<path fill="none" stroke="#4b5563" d="M563.26,-184C563.26,-184 619.62,-184 619.62,-184"/>
<polygon fill="#4b5563" stroke="#4b5563" points="619.62,-187.5 629.62,-184 619.62,-180.5 619.62,-187.5"/>
</g>
<!-- json -->
<g id="node9" class="node">
<title>json</title>
<polygon fill="#eef2ff" stroke="#1f2937" points="829.5,-39 662.5,-39 658.5,-35 658.5,-3 825.5,-3 829.5,-7 829.5,-39"/>
<polyline fill="none" stroke="#1f2937" points="825.5,-35 658.5,-35 "/>
<polyline fill="none" stroke="#1f2937" points="825.5,-35 825.5,-3 "/>
<polyline fill="none" stroke="#1f2937" points="825.5,-35 829.5,-39 "/>
<text text-anchor="middle" x="744" y="-18.2" font-family="DejaVu Sans" font-size="11.00">profile JSON / branch JSON</text>
</g>
<!-- parsers&#45;&gt;json -->
<g id="edge7" class="edge">
<title>parsers&#45;&gt;json</title>
<path fill="none" stroke="#4b5563" d="M571.03,-21C571.03,-21 648.15,-21 648.15,-21"/>
<polygon fill="#4b5563" stroke="#4b5563" points="648.15,-24.5 658.15,-21 648.15,-17.5 648.15,-24.5"/>
</g>
<!-- maps -->
<g id="node6" class="node">
<title>maps</title>
<path fill="#f8fafc" stroke="#1f2937" d="M157,-280C157,-280 33,-280 33,-280 27,-280 21,-274 21,-268 21,-268 21,-250 21,-250 21,-244 27,-238 33,-238 33,-238 157,-238 157,-238 163,-238 169,-244 169,-250 169,-250 169,-268 169,-268 169,-274 163,-280 157,-280"/>
<text text-anchor="middle" x="95" y="-262.2" font-family="DejaVu Sans" font-size="11.00">Canonical mappers</text>
<text text-anchor="middle" x="95" y="-250.2" font-family="DejaVu Sans" font-size="11.00">archive &lt;&#45;&gt; canonical</text>
</g>
<!-- maps&#45;&gt;rw -->
<g id="edge8" class="edge">
<title>maps&#45;&gt;rw</title>
<path fill="none" stroke="#4b5563" stroke-dasharray="5,2" d="M169.3,-271.33C169.3,-271.33 383.23,-271.33 383.23,-271.33"/>
<polygon fill="#4b5563" stroke="#4b5563" points="383.23,-274.83 393.23,-271.33 383.23,-267.83 383.23,-274.83"/>
</g>
<!-- maps&#45;&gt;asm -->
<g id="edge9" class="edge">
<title>maps&#45;&gt;asm</title>
<path fill="none" stroke="#4b5563" stroke-dasharray="5,2" d="M169.3,-246C280.68,-246 478,-246 478,-246 478,-246 478,-215.34 478,-215.34"/>
<polygon fill="#4b5563" stroke="#4b5563" points="481.5,-215.34 478,-205.34 474.5,-215.34 481.5,-215.34"/>
</g>
</g>
</svg>
