<svg xmlns="http://www.w3.org/2000/svg" xmlns:xlink="http://www.w3.org/1999/xlink" contentStyleType="text/css" data-diagram-type="ACTIVITY" height="570px" preserveAspectRatio="none" style="width:1194px;height:570px;background:#FFFFFF;" version="1.1" viewBox="0 0 1194 570" width="1194px" zoomAndPan="magnify"><title>&#1040;&#1083;&#1075;&#1086;&#1088;&#1080;&#1090;&#1084; &#1088;&#1072;&#1073;&#1086;&#1090;&#1099; &#1080;&#1085;&#1090;&#1077;&#1075;&#1088;&#1072;&#1090;&#1086;&#1088;&#1072; &#1089; &#1073;&#1080;&#1073;&#1083;&#1080;&#1086;&#1090;&#1077;&#1082;&#1086;&#1081;</title><defs/><g><g class="title" data-source-line="9"><text fill="#000000" font-family="sans-serif" font-size="14" font-weight="bold" lengthAdjust="spacing" textLength="371.499" x="409.9067" y="32.9951">&#1040;&#1083;&#1075;&#1086;&#1088;&#1080;&#1090;&#1084; &#1088;&#1072;&#1073;&#1086;&#1090;&#1099; &#1080;&#1085;&#1090;&#1077;&#1075;&#1088;&#1072;&#1090;&#1086;&#1088;&#1072; &#1089; &#1073;&#1080;&#1073;&#1083;&#1080;&#1086;&#1090;&#1077;&#1082;&#1086;&#1081;</text></g><ellipse cx="597.2236" cy="57.2969" fill="#222222" rx="10" ry="10" style="stroke:#222222;stroke-width:1;"/><rect fill="#F8FAFC" height="47.9375" rx="12.5" ry="12.5" style="stroke:#1F2937;stroke-width:0.5;" width="164.3984" x="515.0244" y="87.2969"/><text fill="#000000" font-family="sans-serif" font-size="12" lengthAdjust="spacing" textLength="124.6758" x="534.8857" y="108.4355">&#1055;&#1086;&#1083;&#1091;&#1095;&#1080;&#1090;&#1100; DTT bytes</text><text fill="#000000" font-family="sans-serif" font-size="12" lengthAdjust="spacing" textLength="144.3984" x="525.0244" y="122.4043">&#1080;&#1083;&#1080; profile/branch JSON</text><polygon fill="#F8FAFC" points="561.0493,155.2344,633.3979,155.2344,645.3979,167.2344,633.3979,179.2344,561.0493,179.2344,549.0493,167.2344,561.0493,155.2344" style="stroke:#1F2937;stroke-width:0.5;"/><text fill="#000000" font-family="sans-serif" font-size="11" lengthAdjust="spacing" textLength="72.3486" x="561.0493" y="171.0425">&#1042;&#1093;&#1086;&#1076; = DTT?</text><text fill="#000000" font-family="sans-serif" font-size="11" lengthAdjust="spacing" textLength="14.3462" x="534.7031" y="164.6401">&#1076;&#1072;</text><text fill="#000000" font-family="sans-serif" font-size="11" lengthAdjust="spacing" textLength="20.3672" x="645.3979" y="164.6401">&#1085;&#1077;&#1090;</text><rect fill="#F8FAFC" height="33.9688" rx="12.5" ry="12.5" style="stroke:#1F2937;stroke-width:0.5;" width="133.7656" x="225.1255" y="189.2344"/><text fill="#000000" font-family="sans-serif" font-size="12" lengthAdjust="spacing" textLength="113.7656" x="235.1255" y="210.373">Facade.readDtt(...)</text><rect fill="#F8FAFC" height="33.9688" rx="12.5" ry="12.5" style="stroke:#1F2937;stroke-width:0.5;" width="136.0098" x="224.0034" y="258.2031"/><text fill="#000000" font-family="sans-serif" font-size="12" lengthAdjust="spacing" textLength="116.0098" x="234.0034" y="279.3418">Facade.validate(...)</text><polygon fill="#F8FAFC" points="228.8228,321.1719,355.1938,321.1719,367.1938,333.1719,355.1938,345.1719,228.8228,345.1719,216.8228,333.1719,228.8228,321.1719" style="stroke:#1F2937;stroke-width:0.5;"/><text fill="#000000" font-family="sans-serif" font-size="11" lengthAdjust="spacing" textLength="126.3711" x="228.8228" y="336.98">&#1053;&#1091;&#1078;&#1085;&#1072; &#1089;&#1073;&#1086;&#1088;&#1082;&#1072; profile?</text><text fill="#000000" font-family="sans-serif" font-size="11" lengthAdjust="spacing" textLength="14.3462" x="202.4766" y="330.5776">&#1076;&#1072;</text><text fill="#000000" font-family="sans-serif" font-size="11" lengthAdjust="spacing" textLength="38.2368" x="367.1938" y="330.5776">branch</text><rect fill="#F8FAFC" height="33.9688" rx="12.5" ry="12.5" style="stroke:#1F2937;stroke-width:0.5;" width="269.873" x="11" y="355.1719"/><text fill="#000000" font-family="sans-serif" font-size="12" lengthAdjust="spacing" textLength="249.873" x="21" y="376.3105">Facade.import/previewDttSetToProfile(...)</text><rect fill="#F8FAFC" height="33.9688" rx="12.5" ry="12.5" style="stroke:#1F2937;stroke-width:0.5;" width="274.4141" x="300.873" y="355.1719"/><text fill="#000000" font-family="sans-serif" font-size="12" lengthAdjust="spacing" textLength="254.4141" x="310.873" y="376.3105">Facade.import/previewDttSetToBranch(...)</text><polygon fill="#F8FAFC" points="292.0083,395.1406,304.0083,407.1406,292.0083,419.1406,280.0083,407.1406,292.0083,395.1406" style="stroke:#1F2937;stroke-width:0.5;"/><polygon fill="#F8FAFC" points="841.3965,189.2344,963.4814,189.2344,975.4814,201.2344,963.4814,213.2344,841.3965,213.2344,829.3965,201.2344,841.3965,189.2344" style="stroke:#1F2937;stroke-width:0.5;"/><text fill="#000000" font-family="sans-serif" font-size="11" lengthAdjust="spacing" textLength="122.085" x="841.3965" y="205.0425">&#1042;&#1093;&#1086;&#1076; = object model?</text><text fill="#000000" font-family="sans-serif" font-size="11" lengthAdjust="spacing" textLength="14.3462" x="815.0503" y="198.6401">&#1076;&#1072;</text><text fill="#000000" font-family="sans-serif" font-size="11" lengthAdjust="spacing" textLength="92.4688" x="975.4814" y="198.6401">&#1089;&#1090;&#1088;&#1086;&#1082;&#1086;&#1074;&#1099;&#1081; JSON</text><rect fill="#F8FAFC" height="33.9688" rx="12.5" ry="12.5" style="stroke:#1F2937;stroke-width:0.5;" width="280.291" x="615.2871" y="223.2344"/><text fill="#000000" font-family="sans-serif" font-size="12" lengthAdjust="spacing" textLength="260.291" x="625.2871" y="244.373">Facade.exportDttSetFromProfile/Branch(...)</text><rect fill="#F8FAFC" height="47.9375" rx="12.5" ry="12.5" style="stroke:#1F2937;stroke-width:0.5;" width="267.7344" x="915.5781" y="223.2344"/><text fill="#000000" font-family="sans-serif" font-size="12" lengthAdjust="spacing" textLength="247.7344" x="925.5781" y="244.373">Facade.parseProfileJson/parseBranchJson</text><text fill="#000000" font-family="sans-serif" font-size="12" lengthAdjust="spacing" textLength="165.4629" x="966.7139" y="258.3418">&#1080;&#1083;&#1080; export...From...Json(...)</text><polygon fill="#F8FAFC" points="902.439,277.1719,914.439,289.1719,902.439,301.1719,890.439,289.1719,902.439,277.1719" style="stroke:#1F2937;stroke-width:0.5;"/><polygon fill="#F8FAFC" points="597.2236,425.1406,609.2236,437.1406,597.2236,449.1406,585.2236,437.1406,597.2236,425.1406" style="stroke:#1F2937;stroke-width:0.5;"/><rect fill="#F8FAFC" height="47.9375" rx="12.5" ry="12.5" style="stroke:#1F2937;stroke-width:0.5;" width="184.584" x="504.9316" y="469.1406"/><text fill="#000000" font-family="sans-serif" font-size="12" lengthAdjust="spacing" textLength="164.584" x="514.9316" y="490.2793">&#1057;&#1077;&#1088;&#1080;&#1072;&#1083;&#1080;&#1079;&#1086;&#1074;&#1072;&#1090;&#1100; &#1088;&#1077;&#1079;&#1091;&#1083;&#1100;&#1090;&#1072;&#1090;</text><text fill="#000000" font-family="sans-serif" font-size="12" lengthAdjust="spacing" textLength="133.2539" x="530.5967" y="504.248">&#1080;&#1083;&#1080; &#1079;&#1072;&#1087;&#1080;&#1089;&#1072;&#1090;&#1100; DTT zip</text><ellipse cx="597.2236" cy="548.0781" fill="none" rx="11" ry="11" style="stroke:#222222;stroke-width:1;"/><ellipse cx="597.2236" cy="548.0781" fill="#222222" rx="6" ry="6" style="stroke:#222222;stroke-width:1;"/><line style="stroke:#181818;stroke-width:1;" x1="597.2236" x2="597.2236" y1="67.2969" y2="87.2969"/><polygon fill="#181818" points="593.2236,77.2969,597.2236,87.2969,601.2236,77.2969,597.2236,81.2969" style="stroke:#181818;stroke-width:1;"/><line style="stroke:#181818;stroke-width:1;" x1="292.0083" x2="292.0083" y1="223.2031" y2="258.2031"/><polygon fill="#181818" points="288.0083,248.2031,292.0083,258.2031,296.0083,248.2031,292.0083,252.2031" style="stroke:#181818;stroke-width:1;"/><line style="stroke:#181818;stroke-width:1;" x1="216.8228" x2="145.9365" y1="333.1719" y2="333.1719"/><line style="stroke:#181818;stroke-width:1;" x1="145.9365" x2="145.9365" y1="333.1719" y2="355.1719"/><polygon fill="#181818" points="141.9365,345.1719,145.9365,355.1719,149.9365,345.1719,145.9365,349.1719" style="stroke:#181818;stroke-width:1;"/><line style="stroke:#181818;stroke-width:1;" x1="367.1938" x2="438.0801" y1="333.1719" y2="333.1719"/><line style="stroke:#181818;stroke-width:1;" x1="438.0801" x2="438.0801" y1="333.1719" y2="355.1719"/><polygon fill="#181818" points="434.0801,345.1719,438.0801,355.1719,442.0801,345.1719,438.0801,349.1719" style="stroke:#181818;stroke-width:1;"/><line style="stroke:#181818;stroke-width:1;" x1="145.9365" x2="145.9365" y1="389.1406" y2="407.1406"/><line style="stroke:#181818;stroke-width:1;" x1="145.9365" x2="280.0083" y1="407.1406" y2="407.1406"/><polygon fill="#181818" points="270.0083,403.1406,280.0083,407.1406,270.0083,411.1406,274.0083,407.1406" style="stroke:#181818;stroke-width:1;"/><line style="stroke:#181818;stroke-width:1;" x1="438.0801" x2="438.0801" y1="389.1406" y2="407.1406"/><line style="stroke:#181818;stroke-width:1;" x1="438.0801" x2="304.0083" y1="407.1406" y2="407.1406"/><polygon fill="#181818" points="314.0083,403.1406,304.0083,407.1406,314.0083,411.1406,310.0083,407.1406" style="stroke:#181818;stroke-width:1;"/><line style="stroke:#181818;stroke-width:1;" x1="292.0083" x2="292.0083" y1="292.1719" y2="321.1719"/><polygon fill="#181818" points="288.0083,311.1719,292.0083,321.1719,296.0083,311.1719,292.0083,315.1719" style="stroke:#181818;stroke-width:1;"/><line style="stroke:#181818;stroke-width:1;" x1="829.3965" x2="755.4326" y1="201.2344" y2="201.2344"/><line style="stroke:#181818;stroke-width:1;" x1="755.4326" x2="755.4326" y1="201.2344" y2="223.2344"/><polygon fill="#181818" points="751.4326,213.2344,755.4326,223.2344,759.4326,213.2344,755.4326,217.2344" style="stroke:#181818;stroke-width:1;"/><line style="stroke:#181818;stroke-width:1;" x1="975.4814" x2="1049.4453" y1="201.2344" y2="201.2344"/><line style="stroke:#181818;stroke-width:1;" x1="1049.4453" x2="1049.4453" y1="201.2344" y2="223.2344"/><polygon fill="#181818" points="1045.4453,213.2344,1049.4453,223.2344,1053.4453,213.2344,1049.4453,217.2344" style="stroke:#181818;stroke-width:1;"/><line style="stroke:#181818;stroke-width:1;" x1="755.4326" x2="755.4326" y1="257.2031" y2="289.1719"/><line style="stroke:#181818;stroke-width:1;" x1="755.4326" x2="890.439" y1="289.1719" y2="289.1719"/><polygon fill="#181818" points="880.439,285.1719,890.439,289.1719,880.439,293.1719,884.439,289.1719" style="stroke:#181818;stroke-width:1;"/><line style="stroke:#181818;stroke-width:1;" x1="1049.4453" x2="1049.4453" y1="271.1719" y2="289.1719"/><line style="stroke:#181818;stroke-width:1;" x1="1049.4453" x2="914.439" y1="289.1719" y2="289.1719"/><polygon fill="#181818" points="924.439,285.1719,914.439,289.1719,924.439,293.1719,920.439,289.1719" style="stroke:#181818;stroke-width:1;"/><line style="stroke:#181818;stroke-width:1;" x1="549.0493" x2="292.0083" y1="167.2344" y2="167.2344"/><line style="stroke:#181818;stroke-width:1;" x1="292.0083" x2="292.0083" y1="167.2344" y2="189.2344"/><polygon fill="#181818" points="288.0083,179.2344,292.0083,189.2344,296.0083,179.2344,292.0083,183.2344" style="stroke:#181818;stroke-width:1;"/><line style="stroke:#181818;stroke-width:1;" x1="645.3979" x2="902.439" y1="167.2344" y2="167.2344"/><line style="stroke:#181818;stroke-width:1;" x1="902.439" x2="902.439" y1="167.2344" y2="189.2344"/><polygon fill="#181818" points="898.439,179.2344,902.439,189.2344,906.439,179.2344,902.439,183.2344" style="stroke:#181818;stroke-width:1;"/><line style="stroke:#181818;stroke-width:1;" x1="292.0083" x2="292.0083" y1="419.1406" y2="437.1406"/><line style="stroke:#181818;stroke-width:1;" x1="292.0083" x2="585.2236" y1="437.1406" y2="437.1406"/><polygon fill="#181818" points="575.2236,433.1406,585.2236,437.1406,575.2236,441.1406,579.2236,437.1406" style="stroke:#181818;stroke-width:1;"/><line style="stroke:#181818;stroke-width:1;" x1="902.439" x2="902.439" y1="301.1719" y2="437.1406"/><line style="stroke:#181818;stroke-width:1;" x1="902.439" x2="609.2236" y1="437.1406" y2="437.1406"/><polygon fill="#181818" points="619.2236,433.1406,609.2236,437.1406,619.2236,441.1406,615.2236,437.1406" style="stroke:#181818;stroke-width:1;"/><line style="stroke:#181818;stroke-width:1;" x1="597.2236" x2="597.2236" y1="135.2344" y2="155.2344"/><polygon fill="#181818" points="593.2236,145.2344,597.2236,155.2344,601.2236,145.2344,597.2236,149.2344" style="stroke:#181818;stroke-width:1;"/><line style="stroke:#181818;stroke-width:1;" x1="597.2236" x2="597.2236" y1="449.1406" y2="469.1406"/><polygon fill="#181818" points="593.2236,459.1406,597.2236,469.1406,601.2236,459.1406,597.2236,463.1406" style="stroke:#181818;stroke-width:1;"/><line style="stroke:#181818;stroke-width:1;" x1="597.2236" x2="597.2236" y1="517.0781" y2="537.0781"/><polygon fill="#181818" points="593.2236,527.0781,597.2236,537.0781,601.2236,527.0781,597.2236,531.0781" style="stroke:#181818;stroke-width:1;"/><!--SRC=[ZLBDRjD04BxxALRg9RaaeXo0H0XHgXvw0AJc1JRsRBBKthNMswJbbAH27De3ubuXti3GXgQ4XbUOVIDcxVoHHeY3r-jllfblnlDbnrAbtF24jNbut37wH4MlTAmDwtUbXI1RnhCkZtHVgWuJFCxM8n48VXBR5fpQbx7ig0IKPI4TODPOFBIo9-tPdZOHc59Zvv7OVVRuoJRMHZSxugdW8bnNbJpHAdf0112xGcmXRj4DhBGnCFo4Kxp6cHlWn8tm5wDBZjy86BaBXXEy9tICrnwcc-Vbp0qPKIRqJEcS5OoVECEx8CWiDpPeu1VwdBfpzz6NTPTilzLYxJCBMK0PbCLIeuMCeTusN8LTTdZqvdKpa89LyBFxGCatxBbFUb5bjWkAu1lCgm5ZZGCUyWXg1dYqRssbLgjLcsjuZySouXQMWQBcbJl77tXVz5vCDw26yqKJ3qHMvMIIQcFhgO6UX3u97e5jwRTbtb83o1MiKexoF_bx1NELhY8fWh88DJbse-gYyTNFqErt45gMw0ZYVpGCfrwm53emEfctMj-KBCJSa9Op806_lU_k0k-AHVnTaQoKmRpCOQPLlG3AUlvxiT5IcGIyBBryR7F4ucpWLvgH34TEymQwzUBUNkGJWiTuIzkQkalo5O6ByaJByJVPQJYdUakzbscJFAVJFm00]--></g></svg>