<?xml version="1.0" encoding="UTF-8" standalone="no"?>
<!DOCTYPE svg PUBLIC "-//W3C//DTD SVG 1.1//EN"
 "http://www.w3.org/Graphics/SVG/1.1/DTD/svg11.dtd">
<!-- Generated by graphviz version 2.42.4 (0)
 -->
<!-- Title: G Pages: 1 -->
<svg width="651pt" height="427pt"
 viewBox="0.00 0.00 651.00 427.14" xmlns="http://www.w3.org/2000/svg" xmlns:xlink="http://www.w3.org/1999/xlink">
<g id="graph0" class="graph" transform="scale(1 1) rotate(0) translate(4 423.14)">
<title>G</title>
<polygon fill="white" stroke="transparent" points="-4,4 -4,-423.14 647,-423.14 647,4 -4,4"/>
<!-- start -->
<g id="node1" class="node">
<title>start</title>
<ellipse fill="#eef2ff" stroke="#1f2937" cx="322.5" cy="-383.08" rx="36.12" ry="36.12"/>
<text text-anchor="middle" x="322.5" y="-380.28" font-family="DejaVu Sans" font-size="11.00">Старт</text>
</g>
<!-- in -->
<g id="node2" class="node">
<title>in</title>
<path fill="#f8fafc" stroke="#1f2937" d="M407.5,-310.02C407.5,-310.02 237.5,-310.02 237.5,-310.02 231.5,-310.02 225.5,-304.02 225.5,-298.02 225.5,-298.02 225.5,-286.02 225.5,-286.02 225.5,-280.02 231.5,-274.02 237.5,-274.02 237.5,-274.02 407.5,-274.02 407.5,-274.02 413.5,-274.02 419.5,-280.02 419.5,-286.02 419.5,-286.02 419.5,-298.02 419.5,-298.02 419.5,-304.02 413.5,-310.02 407.5,-310.02"/>
<text text-anchor="middle" x="322.5" y="-295.22" font-family="DejaVu Sans" font-size="11.00">Определить формат входа</text>
<text text-anchor="middle" x="322.5" y="-283.22" font-family="DejaVu Sans" font-size="11.00">DTT / object model / string JSON</text>
</g>
<!-- start&#45;&gt;in -->
<g id="edge1" class="edge">
<title>start&#45;&gt;in</title>
<path fill="none" stroke="#4b5563" d="M322.5,-346.83C322.5,-346.83 322.5,-320.15 322.5,-320.15"/>
<polygon fill="#4b5563" stroke="#4b5563" points="326,-320.15 322.5,-310.15 319,-320.15 326,-320.15"/>
</g>
<!-- dtt -->
<g id="node3" class="node">
<title>dtt</title>
<path fill="#f8fafc" stroke="#1f2937" d="M197,-227.02C197,-227.02 12,-227.02 12,-227.02 6,-227.02 0,-221.02 0,-215.02 0,-215.02 0,-203.02 0,-203.02 0,-197.02 6,-191.02 12,-191.02 12,-191.02 197,-191.02 197,-191.02 203,-191.02 209,-197.02 209,-203.02 209,-203.02 209,-215.02 209,-215.02 209,-221.02 203,-227.02 197,-227.02"/>
<text text-anchor="middle" x="104.5" y="-212.22" font-family="DejaVu Sans" font-size="11.00">readDtt &#45;&gt; validate &#45;&gt;</text>
<text text-anchor="middle" x="104.5" y="-200.22" font-family="DejaVu Sans" font-size="11.00">import/preview to profile or branch</text>
</g>
<!-- in&#45;&gt;dtt -->
<g id="edge2" class="edge">
<title>in&#45;&gt;dtt</title>
<path fill="none" stroke="#4b5563" d="M225.29,-292C167.16,-292 104.5,-292 104.5,-292 104.5,-292 104.5,-237.02 104.5,-237.02"/>
<polygon fill="#4b5563" stroke="#4b5563" points="108,-237.02 104.5,-227.02 101,-237.02 108,-237.02"/>
<text text-anchor="middle" x="201.5" y="-248.02" font-family="DejaVu Sans" font-size="10.00">DTT</text>
</g>
<!-- obj -->
<g id="node4" class="node">
<title>obj</title>
<path fill="#f8fafc" stroke="#1f2937" d="M406,-227.02C406,-227.02 239,-227.02 239,-227.02 233,-227.02 227,-221.02 227,-215.02 227,-215.02 227,-203.02 227,-203.02 227,-197.02 233,-191.02 239,-191.02 239,-191.02 406,-191.02 406,-191.02 412,-191.02 418,-197.02 418,-203.02 418,-203.02 418,-215.02 418,-215.02 418,-221.02 412,-227.02 406,-227.02"/>
<text text-anchor="middle" x="322.5" y="-212.22" font-family="DejaVu Sans" font-size="11.00">exportDttSetFromProfile/Branch</text>
<text text-anchor="middle" x="322.5" y="-200.22" font-family="DejaVu Sans" font-size="11.00">из типизированной модели</text>
</g>
<!-- in&#45;&gt;obj -->
<g id="edge3" class="edge">
<title>in&#45;&gt;obj</title>
<path fill="none" stroke="#4b5563" d="M322.5,-274.01C322.5,-274.01 322.5,-237.28 322.5,-237.28"/>
<polygon fill="#4b5563" stroke="#4b5563" points="326,-237.28 322.5,-227.28 319,-237.28 326,-237.28"/>
<text text-anchor="middle" x="354.5" y="-248.02" font-family="DejaVu Sans" font-size="10.00">object model</text>
</g>
<!-- str -->
<g id="node5" class="node">
<title>str</title>
<path fill="#f8fafc" stroke="#1f2937" d="M631,-227.02C631,-227.02 448,-227.02 448,-227.02 442,-227.02 436,-221.02 436,-215.02 436,-215.02 436,-203.02 436,-203.02 436,-197.02 442,-191.02 448,-191.02 448,-191.02 631,-191.02 631,-191.02 637,-191.02 643,-197.02 643,-203.02 643,-203.02 643,-215.02 643,-215.02 643,-221.02 637,-227.02 631,-227.02"/>
<text text-anchor="middle" x="539.5" y="-212.22" font-family="DejaVu Sans" font-size="11.00">parseProfileJson / parseBranchJson</text>
<text text-anchor="middle" x="539.5" y="-200.22" font-family="DejaVu Sans" font-size="11.00">или export...From...Json</text>
</g>
<!-- in&#45;&gt;str -->
<g id="edge4" class="edge">
<title>in&#45;&gt;str</title>
<path fill="none" stroke="#4b5563" d="M419.58,-292C477.35,-292 539.5,-292 539.5,-292 539.5,-292 539.5,-237.02 539.5,-237.02"/>
<polygon fill="#4b5563" stroke="#4b5563" points="543,-237.02 539.5,-227.02 536,-237.02 543,-237.02"/>
<text text-anchor="middle" x="502" y="-248.02" font-family="DejaVu Sans" font-size="10.00">string JSON</text>
</g>
<!-- out -->
<g id="node6" class="node">
<title>out</title>
<path fill="#f8fafc" stroke="#1f2937" d="M381,-154.02C381,-154.02 264,-154.02 264,-154.02 258,-154.02 252,-148.02 252,-142.02 252,-142.02 252,-130.02 252,-130.02 252,-124.02 258,-118.02 264,-118.02 264,-118.02 381,-118.02 381,-118.02 387,-118.02 393,-124.02 393,-130.02 393,-130.02 393,-142.02 393,-142.02 393,-148.02 387,-154.02 381,-154.02"/>
<text text-anchor="middle" x="322.5" y="-139.22" font-family="DejaVu Sans" font-size="11.00">Сериализовать JSON</text>
<text text-anchor="middle" x="322.5" y="-127.22" font-family="DejaVu Sans" font-size="11.00">или записать DTT zip</text>
</g>
<!-- dtt&#45;&gt;out -->
<g id="edge5" class="edge">
<title>dtt&#45;&gt;out</title>
<path fill="none" stroke="#4b5563" d="M104.5,-190.97C104.5,-169.35 104.5,-136 104.5,-136 104.5,-136 241.72,-136 241.72,-136"/>
<polygon fill="#4b5563" stroke="#4b5563" points="241.72,-139.5 251.72,-136 241.72,-132.5 241.72,-139.5"/>
</g>
<!-- obj&#45;&gt;out -->
<g id="edge6" class="edge">
<title>obj&#45;&gt;out</title>
<path fill="none" stroke="#4b5563" d="M322.5,-190.97C322.5,-190.97 322.5,-164.11 322.5,-164.11"/>
<polygon fill="#4b5563" stroke="#4b5563" points="326,-164.11 322.5,-154.11 319,-164.11 326,-164.11"/>
</g>
<!-- str&#45;&gt;out -->
<g id="edge7" class="edge">
<title>str&#45;&gt;out</title>
<path fill="none" stroke="#4b5563" d="M539.5,-190.97C539.5,-169.35 539.5,-136 539.5,-136 539.5,-136 403.25,-136 403.25,-136"/>
<polygon fill="#4b5563" stroke="#4b5563" points="403.25,-132.5 393.25,-136 403.25,-139.5 403.25,-132.5"/>
</g>
<!-- end -->
<g id="node7" class="node">
<title>end</title>
<ellipse fill="#eef2ff" stroke="#1f2937" cx="322.5" cy="-40.51" rx="36.52" ry="36.52"/>
<ellipse fill="none" stroke="#1f2937" cx="322.5" cy="-40.51" rx="40.52" ry="40.52"/>
<text text-anchor="middle" x="322.5" y="-37.71" font-family="DejaVu Sans" font-size="11.00">Готово</text>
</g>
<!-- out&#45;&gt;end -->
<g id="edge8" class="edge">
<title>out&#45;&gt;end</title>
<path fill="none" stroke="#4b5563" d="M322.5,-117.6C322.5,-117.6 322.5,-91.41 322.5,-91.41"/>
<polygon fill="#4b5563" stroke="#4b5563" points="326,-91.41 322.5,-81.41 319,-91.41 326,-91.41"/>
</g>
</g>
</svg>
