<?xml version="1.0" encoding="UTF-8" standalone="no"?>
<!DOCTYPE svg PUBLIC "-//W3C//DTD SVG 1.1//EN"
 "http://www.w3.org/Graphics/SVG/1.1/DTD/svg11.dtd">
<!-- Generated by graphviz version 2.42.4 (0)
 -->
<!-- Title: G Pages: 1 -->
<svg width="1031pt" height="98pt"
 viewBox="0.00 0.00 1031.00 98.00" xmlns="http://www.w3.org/2000/svg" xmlns:xlink="http://www.w3.org/1999/xlink">
<g id="graph0" class="graph" transform="scale(1 1) rotate(0) translate(4 94)">
<title>G</title>
<polygon fill="white" stroke="transparent" points="-4,4 -4,-94 1027,-94 1027,4 -4,4"/>
<!-- base -->
<g id="node1" class="node">
<title>base</title>
<path fill="#f8fafc" stroke="#1f2937" d="M115,-63C115,-63 12,-63 12,-63 6,-63 0,-57 0,-51 0,-51 0,-39 0,-39 0,-33 6,-27 12,-27 12,-27 115,-27 115,-27 121,-27 127,-33 127,-39 127,-39 127,-51 127,-51 127,-57 121,-63 115,-63"/>
<text text-anchor="middle" x="63.5" y="-48.2" font-family="DejaVu Sans" font-size="11.00">Исходный DTT</text>
<text text-anchor="middle" x="63.5" y="-36.2" font-family="DejaVu Sans" font-size="11.00">Display WD3264.dtt</text>
</g>
<!-- read -->
<g id="node2" class="node">
<title>read</title>
<path fill="#f8fafc" stroke="#1f2937" d="M291,-63C291,-63 175,-63 175,-63 169,-63 163,-57 163,-51 163,-51 163,-39 163,-39 163,-33 169,-27 175,-27 175,-27 291,-27 291,-27 297,-27 303,-33 303,-39 303,-39 303,-51 303,-51 303,-57 297,-63 291,-63"/>
<text text-anchor="middle" x="233" y="-42.2" font-family="DejaVu Sans" font-size="11.00">Facade.readDtt(bytes)</text>
</g>
<!-- base&#45;&gt;read -->
<g id="edge1" class="edge">
<title>base&#45;&gt;read</title>
<path fill="none" stroke="#4b5563" d="M127.1,-45C127.1,-45 152.79,-45 152.79,-45"/>
<polygon fill="#4b5563" stroke="#4b5563" points="152.79,-48.5 162.79,-45 152.79,-41.5 152.79,-48.5"/>
</g>
<!-- clone -->
<g id="node3" class="node">
<title>clone</title>
<path fill="#f8fafc" stroke="#1f2937" d="M484,-63C484,-63 351,-63 351,-63 345,-63 339,-57 339,-51 339,-51 339,-39 339,-39 339,-33 345,-27 351,-27 351,-27 484,-27 484,-27 490,-27 496,-33 496,-39 496,-39 496,-51 496,-51 496,-57 490,-63 484,-63"/>
<text text-anchor="middle" x="417.5" y="-48.2" font-family="DejaVu Sans" font-size="11.00">Клонировать metadata</text>
<text text-anchor="middle" x="417.5" y="-36.2" font-family="DejaVu Sans" font-size="11.00">и значения параметров</text>
</g>
<!-- read&#45;&gt;clone -->
<g id="edge2" class="edge">
<title>read&#45;&gt;clone</title>
<path fill="none" stroke="#4b5563" d="M303.01,-45C303.01,-45 328.89,-45 328.89,-45"/>
<polygon fill="#4b5563" stroke="#4b5563" points="328.89,-48.5 338.89,-45 328.89,-41.5 328.89,-48.5"/>
</g>
<!-- red -->
<g id="node4" class="node">
<title>red</title>
<path fill="#fee2e2" stroke="#1f2937" d="M636,-90C636,-90 544,-90 544,-90 538,-90 532,-84 532,-78 532,-78 532,-66 532,-66 532,-60 538,-54 544,-54 544,-54 636,-54 636,-54 642,-54 648,-60 648,-66 648,-66 648,-78 648,-78 648,-84 642,-90 636,-90"/>
<text text-anchor="middle" x="590" y="-75.2" font-family="DejaVu Sans" font-size="11.00">Display WD3264</text>
<text text-anchor="middle" x="590" y="-63.2" font-family="DejaVu Sans" font-size="11.00">Красное окно.dtt</text>
</g>
<!-- clone&#45;&gt;red -->
<g id="edge3" class="edge">
<title>clone&#45;&gt;red</title>
<path fill="none" stroke="#4b5563" d="M496.18,-58.5C496.18,-58.5 521.82,-58.5 521.82,-58.5"/>
<polygon fill="#4b5563" stroke="#4b5563" points="521.82,-62 531.82,-58.5 521.82,-55 521.82,-62"/>
</g>
<!-- blue -->
<g id="node5" class="node">
<title>blue</title>
<path fill="#dbeafe" stroke="#1f2937" d="M631.5,-36C631.5,-36 548.5,-36 548.5,-36 542.5,-36 536.5,-30 536.5,-24 536.5,-24 536.5,-12 536.5,-12 536.5,-6 542.5,0 548.5,0 548.5,0 631.5,0 631.5,0 637.5,0 643.5,-6 643.5,-12 643.5,-12 643.5,-24 643.5,-24 643.5,-30 637.5,-36 631.5,-36"/>
<text text-anchor="middle" x="590" y="-21.2" font-family="DejaVu Sans" font-size="11.00">Display WD3264</text>
<text text-anchor="middle" x="590" y="-9.2" font-family="DejaVu Sans" font-size="11.00">Синее окно.dtt</text>
</g>
<!-- clone&#45;&gt;blue -->
<g id="edge4" class="edge">
<title>clone&#45;&gt;blue</title>
<path fill="none" stroke="#4b5563" d="M496.18,-31.5C496.18,-31.5 526.11,-31.5 526.11,-31.5"/>
<polygon fill="#4b5563" stroke="#4b5563" points="526.11,-35 536.11,-31.5 526.11,-28 526.11,-35"/>
</g>
<!-- zip -->
<g id="node6" class="node">
<title>zip</title>
<path fill="#f8fafc" stroke="#1f2937" d="M817,-63C817,-63 696,-63 696,-63 690,-63 684,-57 684,-51 684,-51 684,-39 684,-39 684,-33 690,-27 696,-27 696,-27 817,-27 817,-27 823,-27 829,-33 829,-39 829,-39 829,-51 829,-51 829,-57 823,-63 817,-63"/>
<text text-anchor="middle" x="756.5" y="-42.2" font-family="DejaVu Sans" font-size="11.00">zip из нескольких .dtt</text>
</g>
<!-- red&#45;&gt;zip -->
<g id="edge5" class="edge">
<title>red&#45;&gt;zip</title>
<path fill="none" stroke="#4b5563" d="M648.23,-58.5C648.23,-58.5 673.95,-58.5 673.95,-58.5"/>
<polygon fill="#4b5563" stroke="#4b5563" points="673.95,-62 683.95,-58.5 673.95,-55 673.95,-62"/>
</g>
<!-- blue&#45;&gt;zip -->
<g id="edge6" class="edge">
<title>blue&#45;&gt;zip</title>
<path fill="none" stroke="#4b5563" d="M643.6,-31.5C643.6,-31.5 673.88,-31.5 673.88,-31.5"/>
<polygon fill="#4b5563" stroke="#4b5563" points="673.88,-35 683.88,-31.5 673.88,-28 673.88,-35"/>
</g>
<!-- imp -->
<g id="node7" class="node">
<title>imp</title>
<path fill="#f8fafc" stroke="#1f2937" d="M1011,-63C1011,-63 877,-63 877,-63 871,-63 865,-57 865,-51 865,-51 865,-39 865,-39 865,-33 871,-27 877,-27 877,-27 1011,-27 1011,-27 1017,-27 1023,-33 1023,-39 1023,-39 1023,-51 1023,-51 1023,-57 1017,-63 1011,-63"/>
<text text-anchor="middle" x="944" y="-48.2" font-family="DejaVu Sans" font-size="11.00">Импорт в profile / branch</text>
<text text-anchor="middle" x="944" y="-36.2" font-family="DejaVu Sans" font-size="11.00">+ override devices</text>
</g>
<!-- zip&#45;&gt;imp -->
<g id="edge7" class="edge">
<title>zip&#45;&gt;imp</title>
<path fill="none" stroke="#4b5563" d="M829.26,-45C829.26,-45 854.75,-45 854.75,-45"/>
<polygon fill="#4b5563" stroke="#4b5563" points="854.75,-48.5 864.75,-45 854.75,-41.5 854.75,-48.5"/>
</g>
</g>
</svg>
