<?xml version="1.0" encoding="UTF-8" standalone="no"?>
<!DOCTYPE svg PUBLIC "-//W3C//DTD SVG 1.1//EN"
 "http://www.w3.org/Graphics/SVG/1.1/DTD/svg11.dtd">
<!-- Generated by graphviz version 2.42.4 (0)
 -->
<!-- Title: G Pages: 1 -->
<svg width="833pt" height="272pt"
 viewBox="0.00 0.00 832.50 272.12" xmlns="http://www.w3.org/2000/svg" xmlns:xlink="http://www.w3.org/1999/xlink">
<g id="graph0" class="graph" transform="scale(1 1) rotate(0) translate(4 268.12)">
<title>G</title>
<polygon fill="white" stroke="transparent" points="-4,4 -4,-268.12 828.5,-268.12 828.5,4 -4,4"/>
<!-- start -->
<g id="node1" class="node">
<title>start</title>
<ellipse fill="#eef2ff" stroke="#1f2937" cx="381" cy="-228.06" rx="36.12" ry="36.12"/>
<text text-anchor="middle" x="381" y="-225.26" font-family="DejaVu Sans" font-size="11.00">Старт</text>
</g>
<!-- q -->
<g id="node2" class="node">
<title>q</title>
<path fill="#eef2ff" stroke="#1f2937" d="M369.89,-150.46C369.89,-150.46 303.95,-123.54 303.95,-123.54 298.4,-121.27 298.4,-116.73 303.95,-114.46 303.95,-114.46 369.89,-87.54 369.89,-87.54 375.45,-85.27 386.55,-85.27 392.11,-87.54 392.11,-87.54 458.05,-114.46 458.05,-114.46 463.6,-116.73 463.6,-121.27 458.05,-123.54 458.05,-123.54 392.11,-150.46 392.11,-150.46 386.55,-152.73 375.45,-152.73 369.89,-150.46"/>
<text text-anchor="middle" x="381" y="-116.2" font-family="DejaVu Sans" font-size="11.00">Какой конфликт?</text>
</g>
<!-- start&#45;&gt;q -->
<g id="edge1" class="edge">
<title>start&#45;&gt;q</title>
<path fill="none" stroke="#4b5563" d="M381,-191.75C381,-191.75 381,-165.16 381,-165.16"/>
<polygon fill="#4b5563" stroke="#4b5563" points="384.5,-165.16 381,-155.16 377.5,-165.16 384.5,-165.16"/>
</g>
<!-- a -->
<g id="node3" class="node">
<title>a</title>
<path fill="#f8fafc" stroke="#1f2937" d="M140,-36C140,-36 12,-36 12,-36 6,-36 0,-30 0,-24 0,-24 0,-12 0,-12 0,-6 6,0 12,0 12,0 140,0 140,0 146,0 152,-6 152,-12 152,-12 152,-24 152,-24 152,-30 146,-36 140,-36"/>
<text text-anchor="middle" x="76" y="-21.2" font-family="DejaVu Sans" font-size="11.00">FAIL_IF_EXISTS</text>
<text text-anchor="middle" x="76" y="-9.2" font-family="DejaVu Sans" font-size="11.00">жёсткая уникальность</text>
</g>
<!-- q&#45;&gt;a -->
<g id="edge2" class="edge">
<title>q&#45;&gt;a</title>
<path fill="none" stroke="#4b5563" d="M292.78,-119C202.7,-119 76,-119 76,-119 76,-119 76,-46.06 76,-46.06"/>
<polygon fill="#4b5563" stroke="#4b5563" points="79.5,-46.06 76,-36.06 72.5,-46.06 79.5,-46.06"/>
<text text-anchor="middle" x="130.5" y="-57" font-family="DejaVu Sans" font-size="10.00">запретить дубликат</text>
</g>
<!-- b -->
<g id="node4" class="node">
<title>b</title>
<path fill="#f8fafc" stroke="#1f2937" d="M287.5,-36C287.5,-36 182.5,-36 182.5,-36 176.5,-36 170.5,-30 170.5,-24 170.5,-24 170.5,-12 170.5,-12 170.5,-6 176.5,0 182.5,0 182.5,0 287.5,0 287.5,0 293.5,0 299.5,-6 299.5,-12 299.5,-12 299.5,-24 299.5,-24 299.5,-30 293.5,-36 287.5,-36"/>
<text text-anchor="middle" x="235" y="-21.2" font-family="DejaVu Sans" font-size="11.00">REPLACE</text>
<text text-anchor="middle" x="235" y="-9.2" font-family="DejaVu Sans" font-size="11.00">полное замещение</text>
</g>
<!-- q&#45;&gt;b -->
<g id="edge3" class="edge">
<title>q&#45;&gt;b</title>
<path fill="none" stroke="#4b5563" d="M308.5,-112.37C308.5,-89.9 308.5,-18 308.5,-18 308.5,-18 307.63,-18 307.63,-18"/>
<polygon fill="#4b5563" stroke="#4b5563" points="309.78,-14.5 299.78,-18 309.78,-21.5 309.78,-14.5"/>
<text text-anchor="middle" x="260.5" y="-57" font-family="DejaVu Sans" font-size="10.00">заменить</text>
</g>
<!-- c -->
<g id="node5" class="node">
<title>c</title>
<path fill="#f8fafc" stroke="#1f2937" d="M432.5,-36C432.5,-36 329.5,-36 329.5,-36 323.5,-36 317.5,-30 317.5,-24 317.5,-24 317.5,-12 317.5,-12 317.5,-6 323.5,0 329.5,0 329.5,0 432.5,0 432.5,0 438.5,0 444.5,-6 444.5,-12 444.5,-12 444.5,-24 444.5,-24 444.5,-30 438.5,-36 432.5,-36"/>
<text text-anchor="middle" x="381" y="-21.2" font-family="DejaVu Sans" font-size="11.00">MERGE_NON_NULLS</text>
<text text-anchor="middle" x="381" y="-9.2" font-family="DejaVu Sans" font-size="11.00">дозаполнение null</text>
</g>
<!-- q&#45;&gt;c -->
<g id="edge4" class="edge">
<title>q&#45;&gt;c</title>
<path fill="none" stroke="#4b5563" d="M381,-82.82C381,-82.82 381,-46.1 381,-46.1"/>
<polygon fill="#4b5563" stroke="#4b5563" points="384.5,-46.1 381,-36.1 377.5,-46.1 384.5,-46.1"/>
<text text-anchor="middle" x="410" y="-57" font-family="DejaVu Sans" font-size="10.00">дополнить</text>
</g>
<!-- d -->
<g id="node6" class="node">
<title>d</title>
<path fill="#f8fafc" stroke="#1f2937" d="M623,-36C623,-36 475,-36 475,-36 469,-36 463,-30 463,-24 463,-24 463,-12 463,-12 463,-6 469,0 475,0 475,0 623,0 623,0 629,0 635,-6 635,-12 635,-12 635,-24 635,-24 635,-30 629,-36 623,-36"/>
<text text-anchor="middle" x="549" y="-21.2" font-family="DejaVu Sans" font-size="11.00">MERGE_PRESERVE_EXISTING</text>
<text text-anchor="middle" x="549" y="-9.2" font-family="DejaVu Sans" font-size="11.00">сохранять имеющееся</text>
</g>
<!-- q&#45;&gt;d -->
<g id="edge5" class="edge">
<title>q&#45;&gt;d</title>
<path fill="none" stroke="#4b5563" d="M453.75,-112.68C453.75,-90.57 453.75,-18 453.75,-18 453.75,-18 454.66,-18 454.66,-18"/>
<polygon fill="#4b5563" stroke="#4b5563" points="452.88,-21.5 462.88,-18 452.88,-14.5 452.88,-21.5"/>
<text text-anchor="middle" x="597.5" y="-57" font-family="DejaVu Sans" font-size="10.00">сохранить existing</text>
</g>
<!-- e -->
<g id="node7" class="node">
<title>e</title>
<path fill="#f8fafc" stroke="#1f2937" d="M812.5,-36C812.5,-36 665.5,-36 665.5,-36 659.5,-36 653.5,-30 653.5,-24 653.5,-24 653.5,-12 653.5,-12 653.5,-6 659.5,0 665.5,0 665.5,0 812.5,0 812.5,0 818.5,0 824.5,-6 824.5,-12 824.5,-12 824.5,-24 824.5,-24 824.5,-30 818.5,-36 812.5,-36"/>
<text text-anchor="middle" x="739" y="-21.2" font-family="DejaVu Sans" font-size="11.00">CREATE_COPY_WITH_SUFFIX</text>
<text text-anchor="middle" x="739" y="-9.2" font-family="DejaVu Sans" font-size="11.00">создать копию</text>
</g>
<!-- q&#45;&gt;e -->
<g id="edge6" class="edge">
<title>q&#45;&gt;e</title>
<path fill="none" stroke="#4b5563" d="M469.49,-119C575.51,-119 739,-119 739,-119 739,-119 739,-46.06 739,-46.06"/>
<polygon fill="#4b5563" stroke="#4b5563" points="742.5,-46.06 739,-36.06 735.5,-46.06 742.5,-46.06"/>
<text text-anchor="middle" x="774" y="-57" font-family="DejaVu Sans" font-size="10.00">нужна копия</text>
</g>
</g>
</svg>
