<svg xmlns="http://www.w3.org/2000/svg" xmlns:xlink="http://www.w3.org/1999/xlink" contentStyleType="text/css" data-diagram-type="ACTIVITY" height="305px" preserveAspectRatio="none" style="width:1146px;height:305px;background:#FFFFFF;" version="1.1" viewBox="0 0 1146 305" width="1146px" zoomAndPan="magnify"><title>&#1042;&#1099;&#1073;&#1086;&#1088; merge-&#1089;&#1090;&#1088;&#1072;&#1090;&#1077;&#1075;&#1080;&#1080;</title><defs/><g><g class="title" data-source-line="9"><text fill="#000000" font-family="sans-serif" font-size="14" font-weight="bold" lengthAdjust="spacing" textLength="194.3594" x="474.668" y="32.9951">&#1042;&#1099;&#1073;&#1086;&#1088; merge-&#1089;&#1090;&#1088;&#1072;&#1090;&#1077;&#1075;&#1080;&#1080;</text></g><ellipse cx="582.8477" cy="57.2969" fill="#222222" rx="10" ry="10" style="stroke:#222222;stroke-width:1;"/><rect fill="#F8FAFC" height="33.9688" rx="12.5" ry="12.5" style="stroke:#1F2937;stroke-width:0.5;" width="235.4492" x="465.123" y="87.2969"/><text fill="#000000" font-family="sans-serif" font-size="12" lengthAdjust="spacing" textLength="215.4492" x="475.123" y="108.4355">&#1054;&#1087;&#1088;&#1077;&#1076;&#1077;&#1083;&#1080;&#1090;&#1100; &#1089;&#1094;&#1077;&#1085;&#1072;&#1088;&#1080;&#1081; &#1082;&#1086;&#1085;&#1092;&#1083;&#1080;&#1082;&#1090;&#1072;</text><polygon fill="#F8FAFC" points="32,141.2656,198.2085,141.2656,210.2085,153.2656,198.2085,165.2656,32,165.2656,20,153.2656,32,141.2656" style="stroke:#1F2937;stroke-width:0.5;"/><text fill="#000000" font-family="sans-serif" font-size="11" lengthAdjust="spacing" textLength="14.3462" x="119.1042" y="175.4761">&#1076;&#1072;</text><text fill="#000000" font-family="sans-serif" font-size="11" lengthAdjust="spacing" textLength="166.2085" x="32" y="157.0737">&#1058;&#1080;&#1087; &#1076;&#1086;&#1083;&#1078;&#1077;&#1085; &#1073;&#1099;&#1090;&#1100; &#1091;&#1085;&#1080;&#1082;&#1072;&#1083;&#1077;&#1085;?</text><rect fill="#F8FAFC" height="33.9688" rx="12.5" ry="12.5" style="stroke:#1F2937;stroke-width:0.5;" width="109.6836" x="60.2625" y="198.0703"/><text fill="#000000" font-family="sans-serif" font-size="12" lengthAdjust="spacing" textLength="89.6836" x="70.2625" y="219.209">FAIL_IF_EXISTS</text><polygon fill="#F8FAFC" points="242.2085,141.2656,401.1875,141.2656,413.1875,153.2656,401.1875,165.2656,242.2085,165.2656,230.2085,153.2656,242.2085,141.2656" style="stroke:#1F2937;stroke-width:0.5;"/><text fill="#000000" font-family="sans-serif" font-size="11" lengthAdjust="spacing" textLength="14.3462" x="325.698" y="175.4761">&#1076;&#1072;</text><text fill="#000000" font-family="sans-serif" font-size="11" lengthAdjust="spacing" textLength="158.979" x="242.2085" y="157.0737">&#1053;&#1091;&#1078;&#1085;&#1086; &#1087;&#1086;&#1083;&#1085;&#1086;&#1077; &#1079;&#1072;&#1084;&#1077;&#1097;&#1077;&#1085;&#1080;&#1077;?</text><rect fill="#F8FAFC" height="33.9688" rx="12.5" ry="12.5" style="stroke:#1F2937;stroke-width:0.5;" width="74.0117" x="284.6921" y="198.0703"/><text fill="#000000" font-family="sans-serif" font-size="12" lengthAdjust="spacing" textLength="54.0117" x="294.6921" y="219.209">REPLACE</text><polygon fill="#F8FAFC" points="445.1875,141.2656,638.4717,141.2656,650.4717,153.2656,638.4717,165.2656,445.1875,165.2656,433.1875,153.2656,445.1875,141.2656" style="stroke:#1F2937;stroke-width:0.5;"/><text fill="#000000" font-family="sans-serif" font-size="11" lengthAdjust="spacing" textLength="14.3462" x="545.8296" y="175.4761">&#1076;&#1072;</text><text fill="#000000" font-family="sans-serif" font-size="11" lengthAdjust="spacing" textLength="193.2842" x="445.1875" y="157.0737">&#1053;&#1091;&#1078;&#1085;&#1086; &#1076;&#1086;&#1079;&#1072;&#1087;&#1086;&#1083;&#1085;&#1077;&#1085;&#1080;&#1077; null-&#1087;&#1086;&#1083;&#1077;&#1081;?</text><rect fill="#F8FAFC" height="33.9688" rx="12.5" ry="12.5" style="stroke:#1F2937;stroke-width:0.5;" width="141.3008" x="471.1792" y="198.0703"/><text fill="#000000" font-family="sans-serif" font-size="12" lengthAdjust="spacing" textLength="121.3008" x="481.1792" y="219.209">MERGE_NON_NULLS</text><polygon fill="#F8FAFC" points="682.4717,141.2656,922.1621,141.2656,934.1621,153.2656,922.1621,165.2656,682.4717,165.2656,670.4717,153.2656,682.4717,141.2656" style="stroke:#1F2937;stroke-width:0.5;"/><text fill="#000000" font-family="sans-serif" font-size="11" lengthAdjust="spacing" textLength="14.3462" x="806.3169" y="175.4761">&#1076;&#1072;</text><text fill="#000000" font-family="sans-serif" font-size="11" lengthAdjust="spacing" textLength="239.6904" x="682.4717" y="157.0737">&#1053;&#1077;&#1083;&#1100;&#1079;&#1103; &#1090;&#1077;&#1088;&#1103;&#1090;&#1100; &#1089;&#1091;&#1097;&#1077;&#1089;&#1090;&#1074;&#1091;&#1102;&#1097;&#1080;&#1077; &#1079;&#1085;&#1072;&#1095;&#1077;&#1085;&#1080;&#1103;?</text><rect fill="#F8FAFC" height="33.9688" rx="12.5" ry="12.5" style="stroke:#1F2937;stroke-width:0.5;" width="193.7422" x="705.4458" y="198.0703"/><text fill="#000000" font-family="sans-serif" font-size="12" lengthAdjust="spacing" textLength="173.7422" x="715.4458" y="219.209">MERGE_PRESERVE_EXISTING</text><rect fill="#F8FAFC" height="33.9688" rx="12.5" ry="12.5" style="stroke:#1F2937;stroke-width:0.5;" width="191.5332" x="944.1621" y="194.668"/><text fill="#000000" font-family="sans-serif" font-size="12" lengthAdjust="spacing" textLength="171.5332" x="954.1621" y="215.8066">CREATE_COPY_WITH_SUFFIX</text><ellipse cx="582.8477" cy="283.0391" fill="none" rx="11" ry="11" style="stroke:#222222;stroke-width:1;"/><ellipse cx="582.8477" cy="283.0391" fill="#222222" rx="6" ry="6" style="stroke:#222222;stroke-width:1;"/><line style="stroke:#181818;stroke-width:1;" x1="582.8477" x2="582.8477" y1="67.2969" y2="87.2969"/><polygon fill="#181818" points="578.8477,77.2969,582.8477,87.2969,586.8477,77.2969,582.8477,81.2969" style="stroke:#181818;stroke-width:1;"/><line style="stroke:#181818;stroke-width:1;" x1="115.1042" x2="115.1042" y1="165.2656" y2="198.0703"/><polygon fill="#181818" points="111.1042,188.0703,115.1042,198.0703,119.1042,188.0703,115.1042,192.0703" style="stroke:#181818;stroke-width:1;"/><line style="stroke:#181818;stroke-width:1;" x1="115.1042" x2="115.1042" y1="232.0391" y2="252.0391"/><polygon fill="#181818" points="111.1042,242.0391,115.1042,252.0391,119.1042,242.0391,115.1042,246.0391" style="stroke:#181818;stroke-width:1;"/><line style="stroke:#181818;stroke-width:1;" x1="321.698" x2="321.698" y1="165.2656" y2="198.0703"/><polygon fill="#181818" points="317.698,188.0703,321.698,198.0703,325.698,188.0703,321.698,192.0703" style="stroke:#181818;stroke-width:1;"/><line style="stroke:#181818;stroke-width:1;" x1="321.698" x2="321.698" y1="232.0391" y2="252.0391"/><polygon fill="#181818" points="317.698,242.0391,321.698,252.0391,325.698,242.0391,321.698,246.0391" style="stroke:#181818;stroke-width:1;"/><line style="stroke:#181818;stroke-width:1;" x1="541.8296" x2="541.8296" y1="165.2656" y2="198.0703"/><polygon fill="#181818" points="537.8296,188.0703,541.8296,198.0703,545.8296,188.0703,541.8296,192.0703" style="stroke:#181818;stroke-width:1;"/><line style="stroke:#181818;stroke-width:1;" x1="541.8296" x2="541.8296" y1="232.0391" y2="252.0391"/><polygon fill="#181818" points="537.8296,242.0391,541.8296,252.0391,545.8296,242.0391,541.8296,246.0391" style="stroke:#181818;stroke-width:1;"/><line style="stroke:#181818;stroke-width:1;" x1="802.3169" x2="802.3169" y1="165.2656" y2="198.0703"/><polygon fill="#181818" points="798.3169,188.0703,802.3169,198.0703,806.3169,188.0703,802.3169,192.0703" style="stroke:#181818;stroke-width:1;"/><line style="stroke:#181818;stroke-width:1;" x1="802.3169" x2="802.3169" y1="232.0391" y2="252.0391"/><polygon fill="#181818" points="798.3169,242.0391,802.3169,252.0391,806.3169,242.0391,802.3169,246.0391" style="stroke:#181818;stroke-width:1;"/><line style="stroke:#181818;stroke-width:1;" x1="210.2085" x2="230.2085" y1="153.2656" y2="153.2656"/><polygon fill="#181818" points="220.2085,149.2656,230.2085,153.2656,220.2085,157.2656,224.2085,153.2656" style="stroke:#181818;stroke-width:1;"/><line style="stroke:#181818;stroke-width:1;" x1="413.1875" x2="433.1875" y1="153.2656" y2="153.2656"/><polygon fill="#181818" points="423.1875,149.2656,433.1875,153.2656,423.1875,157.2656,427.1875,153.2656" style="stroke:#181818;stroke-width:1;"/><line style="stroke:#181818;stroke-width:1;" x1="650.4717" x2="670.4717" y1="153.2656" y2="153.2656"/><polygon fill="#181818" points="660.4717,149.2656,670.4717,153.2656,660.4717,157.2656,664.4717,153.2656" style="stroke:#181818;stroke-width:1;"/><line style="stroke:#181818;stroke-width:1;" x1="582.8477" x2="582.8477" y1="121.2656" y2="126.2656"/><line style="stroke:#181818;stroke-width:1;" x1="582.8477" x2="115.1042" y1="126.2656" y2="126.2656"/><line style="stroke:#181818;stroke-width:1;" x1="115.1042" x2="115.1042" y1="126.2656" y2="141.2656"/><polygon fill="#181818" points="111.1042,131.2656,115.1042,141.2656,119.1042,131.2656,115.1042,135.2656" style="stroke:#181818;stroke-width:1;"/><line style="stroke:#181818;stroke-width:1;" x1="934.1621" x2="1039.9287" y1="153.2656" y2="153.2656"/><line style="stroke:#181818;stroke-width:1;" x1="1039.9287" x2="1039.9287" y1="153.2656" y2="194.668"/><polygon fill="#181818" points="1035.9287,184.668,1039.9287,194.668,1043.9287,184.668,1039.9287,188.668" style="stroke:#181818;stroke-width:1;"/><line style="stroke:#181818;stroke-width:1;" x1="1039.9287" x2="1039.9287" y1="228.6367" y2="252.0391"/><polygon fill="#181818" points="1035.9287,242.0391,1039.9287,252.0391,1043.9287,242.0391,1039.9287,246.0391" style="stroke:#181818;stroke-width:1;"/><line style="stroke:#181818;stroke-width:1;" x1="115.1042" x2="1039.9287" y1="252.0391" y2="252.0391"/><line style="stroke:#181818;stroke-width:1;" x1="582.8477" x2="582.8477" y1="252.0391" y2="272.0391"/><polygon fill="#181818" points="578.8477,262.0391,582.8477,272.0391,586.8477,262.0391,582.8477,266.0391" style="stroke:#181818;stroke-width:1;"/><!--SRC=[TLBDRjD04BxxAKRgXHvwe1o0ze12j2cMGXevAPIJjSIxoQhEkh8t56wXHI3KYaZSuS0Jf52tRg79Ayo-4RDnYm891rix_lx6dvtjARtFKzw7bxoprqsJWOwgIPoaSD1JHdZP7pphyIWvKBeBaiVPF189oGUnQOlNfXAhhkuBRQ13Dv7EiNZ7g5VAl7cSf958ouoLktBzuRtxorZ_RBCY7qWkE_EfYlSJ7IqGXP3hKYuXBidrZ3An0FniZ_4K9tO8VP5snPfzQm_j4CVs47FyWGKMdfSPdXfl0x_YbA0Sp-ZwYGKHJu3uxscy9iMGs9U0LpZ1Q_lECV2ARCQRdf9m1x_HF0KIJmWwTnh0KtjSkXoH0z5nJ1WXZrR1z8GcrHcELps0ZLh5huT-BMIxVglTslG4VOYPxHVIdfDw0ZYTMTCHSy0Bylg5kVquswx0VD4pOCrwfSgMcxazdSUjwOqBw44ShzqypV5oqVKf2xPOsDXkX8sTUlslLLrlzWGlx0XSltPeHxSb7hb5NVdudSwVQ2hAjt3DVYZJxUX_QSs0jLZmZ9Nr-8sjCjKHgW6hj5bOtMw-29_xxITXQwTMytU9e2D5Fuj9zdy3]--></g></svg>