<svg xmlns="http://www.w3.org/2000/svg" xmlns:xlink="http://www.w3.org/1999/xlink" contentStyleType="text/css" data-diagram-type="SEQUENCE" height="1238px" preserveAspectRatio="none" style="width:1455px;height:1238px;background:#FFFFFF;" version="1.1" viewBox="0 0 1455 1238" width="1455px" zoomAndPan="magnify"><title>Apply/Preview merge-&#1089;&#1094;&#1077;&#1085;&#1072;&#1088;&#1080;&#1080; &#1076;&#1083;&#1103; &#1074;&#1089;&#1077;&#1093; MergeStrategy</title><defs/><g><text fill="#000000" font-family="sans-serif" font-size="14" font-weight="bold" lengthAdjust="spacing" textLength="450.2148" x="498.7354" y="27.9951">Apply/Preview merge-&#1089;&#1094;&#1077;&#1085;&#1072;&#1088;&#1080;&#1080; &#1076;&#1083;&#1103; &#1074;&#1089;&#1077;&#1093; MergeStrategy</text><rect fill="none" height="222.0156" style="stroke:#000000;stroke-width:1.5;" width="618.4365" x="484.6909" y="860.6484"/><g><title>Client</title><rect fill="#000000" fill-opacity="0.00000" height="1039.3359" width="8" x="24.2651" y="118.5938"/><line style="stroke:#181818;stroke-width:0.5;stroke-dasharray:5.0,5.0;" x1="28" x2="28" y1="118.5938" y2="1157.9297"/></g><g><title>Demo Controller</title><rect fill="#000000" fill-opacity="0.00000" height="1039.3359" width="8" x="310.9819" y="118.5938"/><line style="stroke:#181818;stroke-width:0.5;stroke-dasharray:5.0,5.0;" x1="314.3721" x2="314.3721" y1="118.5938" y2="1157.9297"/></g><g><title>DttDemoService</title><rect fill="#000000" fill-opacity="0.00000" height="1039.3359" width="8" x="555.2393" y="118.5938"/><line style="stroke:#181818;stroke-width:0.5;stroke-dasharray:5.0,5.0;" x1="558.6909" x2="558.6909" y1="118.5938" y2="1157.9297"/></g><g><title>DeviceTemplateLibraryFacade</title><rect fill="#000000" fill-opacity="0.00000" height="1039.3359" width="8" x="975.3774" y="118.5938"/><line style="stroke:#181818;stroke-width:0.5;stroke-dasharray:5.0,5.0;" x1="978.6274" x2="978.6274" y1="118.5938" y2="1157.9297"/></g><g><title>TemplateAssemblyService</title><rect fill="#000000" fill-opacity="0.00000" height="1039.3359" width="8" x="1339.9458" y="118.5938"/><line style="stroke:#181818;stroke-width:0.5;stroke-dasharray:5.0,5.0;" x1="1343.2061" x2="1343.2061" y1="118.5938" y2="1157.9297"/></g><g class="participant participant-head" data-participant="Client"><text fill="#000000" font-family="sans-serif" font-size="14" lengthAdjust="spacing" textLength="40.5303" x="5" y="115.292">Client</text><ellipse cx="28.2651" cy="50.7969" fill="#E2E2F0" rx="8" ry="8" style="stroke:#181818;stroke-width:0.5;"/><path d="M28.2651,58.7969 L28.2651,85.7969 M15.2651,66.7969 L41.2651,66.7969 M28.2651,85.7969 L15.2651,100.7969 M28.2651,85.7969 L41.2651,100.7969" fill="none" style="stroke:#181818;stroke-width:0.5;"/></g><g class="participant participant-tail" data-participant="Client"><text fill="#000000" font-family="sans-serif" font-size="14" lengthAdjust="spacing" textLength="40.5303" x="5" y="1169.9248">Client</text><ellipse cx="28.2651" cy="1181.7266" fill="#E2E2F0" rx="8" ry="8" style="stroke:#181818;stroke-width:0.5;"/><path d="M28.2651,1189.7266 L28.2651,1216.7266 M15.2651,1197.7266 L41.2651,1197.7266 M28.2651,1216.7266 L15.2651,1231.7266 M28.2651,1216.7266 L41.2651,1231.7266" fill="none" style="stroke:#181818;stroke-width:0.5;"/></g><g class="participant participant-head" data-participant="C"><rect fill="#E2E2F0" height="30.2969" rx="2.5" ry="2.5" style="stroke:#181818;stroke-width:0.5;" width="129.2197" x="250.3721" y="87.2969"/><text fill="#000000" font-family="sans-serif" font-size="14" lengthAdjust="spacing" textLength="115.2197" x="257.3721" y="107.292">Demo Controller</text></g><g class="participant participant-tail" data-participant="C"><rect fill="#E2E2F0" height="30.2969" rx="2.5" ry="2.5" style="stroke:#181818;stroke-width:0.5;" width="129.2197" x="250.3721" y="1156.9297"/><text fill="#000000" font-family="sans-serif" font-size="14" lengthAdjust="spacing" textLength="115.2197" x="257.3721" y="1176.9248">Demo Controller</text></g><g class="participant participant-head" data-participant="S"><rect fill="#E2E2F0" height="30.2969" rx="2.5" ry="2.5" style="stroke:#181818;stroke-width:0.5;" width="129.0967" x="494.6909" y="87.2969"/><text fill="#000000" font-family="sans-serif" font-size="14" lengthAdjust="spacing" textLength="115.0967" x="501.6909" y="107.292">DttDemoService</text></g><g class="participant participant-tail" data-participant="S"><rect fill="#E2E2F0" height="30.2969" rx="2.5" ry="2.5" style="stroke:#181818;stroke-width:0.5;" width="129.0967" x="494.6909" y="1156.9297"/><text fill="#000000" font-family="sans-serif" font-size="14" lengthAdjust="spacing" textLength="115.0967" x="501.6909" y="1176.9248">DttDemoService</text></g><g class="participant participant-head" data-participant="F"><rect fill="#E2E2F0" height="30.2969" rx="2.5" ry="2.5" style="stroke:#181818;stroke-width:0.5;" width="227.5" x="865.6274" y="87.2969"/><text fill="#000000" font-family="sans-serif" font-size="14" lengthAdjust="spacing" textLength="213.5" x="872.6274" y="107.292">DeviceTemplateLibraryFacade</text></g><g class="participant participant-tail" data-participant="F"><rect fill="#E2E2F0" height="30.2969" rx="2.5" ry="2.5" style="stroke:#181818;stroke-width:0.5;" width="227.5" x="865.6274" y="1156.9297"/><text fill="#000000" font-family="sans-serif" font-size="14" lengthAdjust="spacing" textLength="213.5" x="872.6274" y="1176.9248">DeviceTemplateLibraryFacade</text></g><g class="participant participant-head" data-participant="A"><rect fill="#E2E2F0" height="30.2969" rx="2.5" ry="2.5" style="stroke:#181818;stroke-width:0.5;" width="199.4795" x="1244.2061" y="87.2969"/><text fill="#000000" font-family="sans-serif" font-size="14" lengthAdjust="spacing" textLength="185.4795" x="1251.2061" y="107.292">TemplateAssemblyService</text></g><g class="participant participant-tail" data-participant="A"><rect fill="#E2E2F0" height="30.2969" rx="2.5" ry="2.5" style="stroke:#181818;stroke-width:0.5;" width="199.4795" x="1244.2061" y="1156.9297"/><text fill="#000000" font-family="sans-serif" font-size="14" lengthAdjust="spacing" textLength="185.4795" x="1251.2061" y="1176.9248">TemplateAssemblyService</text></g><rect fill="#EEEEEE" height="3" style="stroke:#EEEEEE;stroke-width:1;" width="1448.6855" x="0" y="149.1602"/><line style="stroke:#000000;stroke-width:1;" x1="0" x2="1448.6855" y1="149.1602" y2="149.1602"/><line style="stroke:#000000;stroke-width:1;" x1="0" x2="1448.6855" y1="152.1602" y2="152.1602"/><rect fill="#EEEEEE" height="23.1328" style="stroke:#000000;stroke-width:2;" width="85.062" x="681.8118" y="138.5938"/><text fill="#000000" font-family="sans-serif" font-size="13" font-weight="bold" lengthAdjust="spacing" textLength="66.5361" x="687.8118" y="154.6606">PREVIEW</text><g class="message" data-participant-1="Client" data-participant-2="C"><polygon fill="#181818" points="302.9819,188.8594,312.9819,192.8594,302.9819,196.8594,306.9819,192.8594" style="stroke:#181818;stroke-width:1;"/><line style="stroke:#181818;stroke-width:1;" x1="28.2651" x2="308.9819" y1="192.8594" y2="192.8594"/><text fill="#000000" font-family="sans-serif" font-size="13" lengthAdjust="spacing" textLength="199.5005" x="35.2651" y="187.7935">POST /preview (branch/profile)</text></g><g class="message" data-participant-1="C" data-participant-2="S"><polygon fill="#181818" points="547.2393,217.9922,557.2393,221.9922,547.2393,225.9922,551.2393,221.9922" style="stroke:#181818;stroke-width:1;"/><line style="stroke:#181818;stroke-width:1;" x1="314.9819" x2="553.2393" y1="221.9922" y2="221.9922"/><text fill="#000000" font-family="sans-serif" font-size="13" lengthAdjust="spacing" textLength="86.4678" x="321.9819" y="216.9263">preview...(...)</text></g><g class="message" data-participant-1="S" data-participant-2="F"><polygon fill="#181818" points="967.3774,247.125,977.3774,251.125,967.3774,255.125,971.3774,251.125" style="stroke:#181818;stroke-width:1;"/><line style="stroke:#181818;stroke-width:1;" x1="559.2393" x2="973.3774" y1="251.125" y2="251.125"/><text fill="#000000" font-family="sans-serif" font-size="13" lengthAdjust="spacing" textLength="396.1382" x="566.2393" y="246.0591">previewProfileImportView(...) / previewBranchImportView(...)</text></g><g class="message" data-participant-1="F" data-participant-2="A"><polygon fill="#181818" points="1331.9458,276.2578,1341.9458,280.2578,1331.9458,284.2578,1335.9458,280.2578" style="stroke:#181818;stroke-width:1;"/><line style="stroke:#181818;stroke-width:1;" x1="979.3774" x2="1337.9458" y1="280.2578" y2="280.2578"/><text fill="#000000" font-family="sans-serif" font-size="13" lengthAdjust="spacing" textLength="226.4907" x="986.3774" y="275.1919">preview... + compute...Preview(...)</text></g><g class="message" data-participant-1="F" data-participant-2="S"><polygon fill="#181818" points="570.2393,305.3906,560.2393,309.3906,570.2393,313.3906,566.2393,309.3906" style="stroke:#181818;stroke-width:1;"/><line style="stroke:#181818;stroke-width:1;stroke-dasharray:2.0,2.0;" x1="564.2393" x2="978.3774" y1="309.3906" y2="309.3906"/><ellipse cx="581.7393" cy="299.8906" fill="#000000" rx="2.5" ry="2.5"/><text fill="#000000" font-family="sans-serif" font-size="13" lengthAdjust="spacing" textLength="248.9932" x="588.2393" y="304.3247">PreviewView (json/counts/diagnostics)</text></g><g class="message" data-participant-1="S" data-participant-2="C"><polygon fill="#181818" points="325.9819,334.5234,315.9819,338.5234,325.9819,342.5234,321.9819,338.5234" style="stroke:#181818;stroke-width:1;"/><line style="stroke:#181818;stroke-width:1;stroke-dasharray:2.0,2.0;" x1="319.9819" x2="558.2393" y1="338.5234" y2="338.5234"/><text fill="#000000" font-family="sans-serif" font-size="13" lengthAdjust="spacing" textLength="147.3101" x="331.9819" y="333.4575">DTO preview response</text></g><g class="message" data-participant-1="C" data-participant-2="Client"><polygon fill="#181818" points="39.2651,363.6563,29.2651,367.6563,39.2651,371.6563,35.2651,367.6563" style="stroke:#181818;stroke-width:1;"/><line style="stroke:#181818;stroke-width:1;stroke-dasharray:2.0,2.0;" x1="33.2651" x2="313.9819" y1="367.6563" y2="367.6563"/><text fill="#000000" font-family="sans-serif" font-size="13" lengthAdjust="spacing" textLength="262.7168" x="45.2651" y="362.5903">200 OK + preview JSON + computations</text></g><rect fill="#EEEEEE" height="3" style="stroke:#EEEEEE;stroke-width:1;" width="1448.6855" x="0" y="396.2227"/><line style="stroke:#000000;stroke-width:1;" x1="0" x2="1448.6855" y1="396.2227" y2="396.2227"/><line style="stroke:#000000;stroke-width:1;" x1="0" x2="1448.6855" y1="399.2227" y2="399.2227"/><rect fill="#EEEEEE" height="23.1328" style="stroke:#000000;stroke-width:2;" width="65.3398" x="691.6729" y="385.6563"/><text fill="#000000" font-family="sans-serif" font-size="13" font-weight="bold" lengthAdjust="spacing" textLength="46.814" x="697.6729" y="401.7231">APPLY</text><g class="message" data-participant-1="Client" data-participant-2="C"><polygon fill="#181818" points="302.9819,435.9219,312.9819,439.9219,302.9819,443.9219,306.9819,439.9219" style="stroke:#181818;stroke-width:1;"/><line style="stroke:#181818;stroke-width:1;" x1="28.2651" x2="308.9819" y1="439.9219" y2="439.9219"/><text fill="#000000" font-family="sans-serif" font-size="13" lengthAdjust="spacing" textLength="190.8931" x="35.2651" y="434.856">POST /import (branch/profile)</text></g><g class="message" data-participant-1="C" data-participant-2="S"><polygon fill="#181818" points="547.2393,465.0547,557.2393,469.0547,547.2393,473.0547,551.2393,469.0547" style="stroke:#181818;stroke-width:1;"/><line style="stroke:#181818;stroke-width:1;" x1="314.9819" x2="553.2393" y1="469.0547" y2="469.0547"/><text fill="#000000" font-family="sans-serif" font-size="13" lengthAdjust="spacing" textLength="77.8604" x="321.9819" y="463.9888">import...(...)</text></g><g class="message" data-participant-1="S" data-participant-2="F"><polygon fill="#181818" points="967.3774,494.1875,977.3774,498.1875,967.3774,502.1875,971.3774,498.1875" style="stroke:#181818;stroke-width:1;"/><line style="stroke:#181818;stroke-width:1;" x1="559.2393" x2="973.3774" y1="498.1875" y2="498.1875"/><text fill="#000000" font-family="sans-serif" font-size="13" lengthAdjust="spacing" textLength="164.8105" x="566.2393" y="493.1216">assemble...ApplyView(...)</text></g><g class="message" data-participant-1="F" data-participant-2="A"><polygon fill="#181818" points="1331.9458,523.3203,1341.9458,527.3203,1331.9458,531.3203,1335.9458,527.3203" style="stroke:#181818;stroke-width:1;"/><line style="stroke:#181818;stroke-width:1;" x1="979.3774" x2="1337.9458" y1="527.3203" y2="527.3203"/><text fill="#000000" font-family="sans-serif" font-size="13" lengthAdjust="spacing" textLength="74.4326" x="986.3774" y="522.2544">assemble...</text></g><g class="message" data-participant-1="F" data-participant-2="A"><polygon fill="#181818" points="1331.9458,552.4531,1341.9458,556.4531,1331.9458,560.4531,1335.9458,556.4531" style="stroke:#181818;stroke-width:1;"/><line style="stroke:#181818;stroke-width:1;" x1="979.3774" x2="1337.9458" y1="556.4531" y2="556.4531"/><text fill="#000000" font-family="sans-serif" font-size="13" lengthAdjust="spacing" textLength="143.4063" x="986.3774" y="551.3872">compute...Preview(...)</text></g><g class="message" data-participant-1="F" data-participant-2="S"><polygon fill="#181818" points="570.2393,581.5859,560.2393,585.5859,570.2393,589.5859,566.2393,585.5859" style="stroke:#181818;stroke-width:1;"/><line style="stroke:#181818;stroke-width:1;stroke-dasharray:2.0,2.0;" x1="564.2393" x2="978.3774" y1="585.5859" y2="585.5859"/><ellipse cx="581.7393" cy="576.0859" fill="#000000" rx="2.5" ry="2.5"/><text fill="#000000" font-family="sans-serif" font-size="13" lengthAdjust="spacing" textLength="234.5776" x="588.2393" y="580.52">ApplyView (json/counts/diagnostics)</text></g><g class="message" data-participant-1="S" data-participant-2="C"><polygon fill="#181818" points="325.9819,610.7188,315.9819,614.7188,325.9819,618.7188,321.9819,614.7188" style="stroke:#181818;stroke-width:1;"/><line style="stroke:#181818;stroke-width:1;stroke-dasharray:2.0,2.0;" x1="319.9819" x2="558.2393" y1="614.7188" y2="614.7188"/><text fill="#000000" font-family="sans-serif" font-size="13" lengthAdjust="spacing" textLength="131.5552" x="331.9819" y="609.6528">DTO apply response</text></g><g class="message" data-participant-1="C" data-participant-2="Client"><polygon fill="#181818" points="39.2651,639.8516,29.2651,643.8516,39.2651,647.8516,35.2651,643.8516" style="stroke:#181818;stroke-width:1;"/><line style="stroke:#181818;stroke-width:1;stroke-dasharray:2.0,2.0;" x1="33.2651" x2="313.9819" y1="643.8516" y2="643.8516"/><text fill="#000000" font-family="sans-serif" font-size="13" lengthAdjust="spacing" textLength="243.8135" x="45.2651" y="638.7856">200 OK + applied JSON + diagnostics</text></g><rect fill="#EEEEEE" height="3" style="stroke:#EEEEEE;stroke-width:1;" width="1448.6855" x="0" y="672.418"/><line style="stroke:#000000;stroke-width:1;" x1="0" x2="1448.6855" y1="672.418" y2="672.418"/><line style="stroke:#000000;stroke-width:1;" x1="0" x2="1448.6855" y1="675.418" y2="675.418"/><rect fill="#EEEEEE" height="23.1328" style="stroke:#000000;stroke-width:2;" width="240.8271" x="603.9292" y="661.8516"/><text fill="#000000" font-family="sans-serif" font-size="13" font-weight="bold" lengthAdjust="spacing" textLength="222.3013" x="609.9292" y="677.9185">MERGE (existing branch JSON)</text><g class="message" data-participant-1="Client" data-participant-2="C"><polygon fill="#181818" points="302.9819,712.1172,312.9819,716.1172,302.9819,720.1172,306.9819,716.1172" style="stroke:#181818;stroke-width:1;"/><line style="stroke:#181818;stroke-width:1;" x1="28.2651" x2="308.9819" y1="716.1172" y2="716.1172"/><text fill="#000000" font-family="sans-serif" font-size="13" lengthAdjust="spacing" textLength="191.2358" x="35.2651" y="711.0513">POST /import/existing-branch</text></g><g class="message" data-participant-1="C" data-participant-2="S"><polygon fill="#181818" points="547.2393,741.25,557.2393,745.25,547.2393,749.25,551.2393,745.25" style="stroke:#181818;stroke-width:1;"/><line style="stroke:#181818;stroke-width:1;" x1="314.9819" x2="553.2393" y1="745.25" y2="745.25"/><text fill="#000000" font-family="sans-serif" font-size="13" lengthAdjust="spacing" textLength="220.2573" x="321.9819" y="740.1841">importDttSetToExistingBranch(...)</text></g><g class="message" data-participant-1="S" data-participant-2="F"><polygon fill="#181818" points="967.3774,770.3828,977.3774,774.3828,967.3774,778.3828,971.3774,774.3828" style="stroke:#181818;stroke-width:1;"/><line style="stroke:#181818;stroke-width:1;" x1="559.2393" x2="973.3774" y1="774.3828" y2="774.3828"/><text fill="#000000" font-family="sans-serif" font-size="13" lengthAdjust="spacing" textLength="281.9058" x="566.2393" y="769.3169">mergeIntoExistingBranchJsonApplyView(...)</text></g><g class="message" data-participant-1="F" data-participant-2="A"><polygon fill="#181818" points="1331.9458,799.5156,1341.9458,803.5156,1331.9458,807.5156,1335.9458,803.5156" style="stroke:#181818;stroke-width:1;"/><line style="stroke:#181818;stroke-width:1;" x1="979.3774" x2="1337.9458" y1="803.5156" y2="803.5156"/><text fill="#000000" font-family="sans-serif" font-size="13" lengthAdjust="spacing" textLength="175.208" x="986.3774" y="798.4497">assemble incoming branch</text></g><g class="message" data-participant-1="F" data-participant-2="F"><line style="stroke:#181818;stroke-width:1;" x1="979.3774" x2="1021.3774" y1="832.6484" y2="832.6484"/><line style="stroke:#181818;stroke-width:1;" x1="1021.3774" x2="1021.3774" y1="832.6484" y2="845.6484"/><line style="stroke:#181818;stroke-width:1;" x1="980.3774" x2="1021.3774" y1="845.6484" y2="845.6484"/><polygon fill="#181818" points="990.3774,841.6484,980.3774,845.6484,990.3774,849.6484,986.3774,845.6484" style="stroke:#181818;stroke-width:1;"/><text fill="#000000" font-family="sans-serif" font-size="13" lengthAdjust="spacing" textLength="350.5684" x="986.3774" y="827.5825">mergeBranchEquipment(existing, incoming, strategy)</text></g><path d="M484.6909,860.6484 L549.1338,860.6484 L549.1338,867.7813 L539.1338,877.7813 L484.6909,877.7813 L484.6909,860.6484" fill="#EEEEEE" style="stroke:#000000;stroke-width:1.5;"/><rect fill="none" height="222.0156" style="stroke:#000000;stroke-width:1.5;" width="618.4365" x="484.6909" y="860.6484"/><text fill="#000000" font-family="sans-serif" font-size="13" font-weight="bold" lengthAdjust="spacing" textLength="19.4429" x="499.6909" y="873.7153">alt</text><text fill="#000000" font-family="sans-serif" font-size="11" font-weight="bold" lengthAdjust="spacing" textLength="103.2271" x="564.1338" y="872.8589">[FAIL_IF_EXISTS]</text><g class="message" data-participant-1="F" data-participant-2="S"><polygon fill="#181818" points="570.2393,894.9141,560.2393,898.9141,570.2393,902.9141,566.2393,898.9141" style="stroke:#181818;stroke-width:1;"/><line style="stroke:#181818;stroke-width:1;stroke-dasharray:2.0,2.0;" x1="564.2393" x2="978.3774" y1="898.9141" y2="898.9141"/><text fill="#000000" font-family="sans-serif" font-size="13" lengthAdjust="spacing" textLength="83.5034" x="576.2393" y="893.8481">conflict error</text></g><line style="stroke:#000000;stroke-width:1;stroke-dasharray:2.0,2.0;" x1="484.6909" x2="1103.1274" y1="907.9141" y2="907.9141"/><text fill="#000000" font-family="sans-serif" font-size="11" font-weight="bold" lengthAdjust="spacing" textLength="65.2104" x="489.6909" y="918.1245">[REPLACE]</text><g class="message" data-participant-1="F" data-participant-2="S"><polygon fill="#181818" points="570.2393,938.8516,560.2393,942.8516,570.2393,946.8516,566.2393,942.8516" style="stroke:#181818;stroke-width:1;"/><line style="stroke:#181818;stroke-width:1;stroke-dasharray:2.0,2.0;" x1="564.2393" x2="978.3774" y1="942.8516" y2="942.8516"/><text fill="#000000" font-family="sans-serif" font-size="13" lengthAdjust="spacing" textLength="195.9077" x="576.2393" y="937.7856">existing replaced by incoming</text></g><line style="stroke:#000000;stroke-width:1;stroke-dasharray:2.0,2.0;" x1="484.6909" x2="1103.1274" y1="951.8516" y2="951.8516"/><text fill="#000000" font-family="sans-serif" font-size="11" font-weight="bold" lengthAdjust="spacing" textLength="132.3706" x="489.6909" y="962.062">[MERGE_NON_NULLS]</text><g class="message" data-participant-1="F" data-participant-2="S"><polygon fill="#181818" points="570.2393,982.7891,560.2393,986.7891,570.2393,990.7891,566.2393,986.7891" style="stroke:#181818;stroke-width:1;"/><line style="stroke:#181818;stroke-width:1;stroke-dasharray:2.0,2.0;" x1="564.2393" x2="978.3774" y1="986.7891" y2="986.7891"/><text fill="#000000" font-family="sans-serif" font-size="13" lengthAdjust="spacing" textLength="231.2515" x="576.2393" y="981.7231">non-null incoming overlays existing</text></g><line style="stroke:#000000;stroke-width:1;stroke-dasharray:2.0,2.0;" x1="484.6909" x2="1103.1274" y1="995.7891" y2="995.7891"/><text fill="#000000" font-family="sans-serif" font-size="11" font-weight="bold" lengthAdjust="spacing" textLength="186.3501" x="489.6909" y="1005.9995">[MERGE_PRESERVE_EXISTING]</text><g class="message" data-participant-1="F" data-participant-2="S"><polygon fill="#181818" points="570.2393,1026.7266,560.2393,1030.7266,570.2393,1034.7266,566.2393,1030.7266" style="stroke:#181818;stroke-width:1;"/><line style="stroke:#181818;stroke-width:1;stroke-dasharray:2.0,2.0;" x1="564.2393" x2="978.3774" y1="1030.7266" y2="1030.7266"/><text fill="#000000" font-family="sans-serif" font-size="13" lengthAdjust="spacing" textLength="160.0181" x="576.2393" y="1025.6606">existing fields preserved</text></g><line style="stroke:#000000;stroke-width:1;stroke-dasharray:2.0,2.0;" x1="484.6909" x2="1103.1274" y1="1039.7266" y2="1039.7266"/><text fill="#000000" font-family="sans-serif" font-size="11" font-weight="bold" lengthAdjust="spacing" textLength="184.9858" x="489.6909" y="1049.937">[CREATE_COPY_WITH_SUFFIX]</text><g class="message" data-participant-1="F" data-participant-2="S"><polygon fill="#181818" points="570.2393,1070.6641,560.2393,1074.6641,570.2393,1078.6641,566.2393,1074.6641" style="stroke:#181818;stroke-width:1;"/><line style="stroke:#181818;stroke-width:1;stroke-dasharray:2.0,2.0;" x1="564.2393" x2="978.3774" y1="1074.6641" y2="1074.6641"/><text fill="#000000" font-family="sans-serif" font-size="13" lengthAdjust="spacing" textLength="219.3242" x="576.2393" y="1069.5981">conflicting type copied with suffix</text></g><g class="message" data-participant-1="S" data-participant-2="C"><polygon fill="#181818" points="325.9819,1106.7969,315.9819,1110.7969,325.9819,1114.7969,321.9819,1110.7969" style="stroke:#181818;stroke-width:1;"/><line style="stroke:#181818;stroke-width:1;stroke-dasharray:2.0,2.0;" x1="319.9819" x2="558.2393" y1="1110.7969" y2="1110.7969"/><text fill="#000000" font-family="sans-serif" font-size="13" lengthAdjust="spacing" textLength="128.083" x="331.9819" y="1105.731">merge result / error</text></g><g class="message" data-participant-1="C" data-participant-2="Client"><polygon fill="#181818" points="39.2651,1135.9297,29.2651,1139.9297,39.2651,1143.9297,35.2651,1139.9297" style="stroke:#181818;stroke-width:1;"/><line style="stroke:#181818;stroke-width:1;stroke-dasharray:2.0,2.0;" x1="33.2651" x2="313.9819" y1="1139.9297" y2="1139.9297"/><text fill="#000000" font-family="sans-serif" font-size="13" lengthAdjust="spacing" textLength="74.6929" x="45.2651" y="1134.8638">HTTP result</text></g><!--SRC=[ZPJFJjj04CRlVeeH9z8IWdf4IYNNs60Q4Yis0KwHSIPXgyskkxi1SYk7zjfNgQeY8LLz1-UDkkjrJ1AWzE23Px_vPkQtVnHH5C7DSpflHGAl2Tx05CK4cukxnRVYllXJ_5XyAHwA1oX-5RyNtw7ukRWhxXTVuSJ8OYLIXPEvuwIPuW8yIf0f9q-58Xd9KwPWwm2d73pEbE2KejY2L8At8L7Ag68KroJ3KX5lcfYL1ASvrGKxv5AaOXwaMJgoyc1TlXIwKkBqaivNdLt7QRSXwlk3q3-3TjknJKFpFNZx4FNY15fvnM9Rrs7PbVxdOqAnuNX65kz39TZTtTtMNyE9JJoeuv7LXzES2pNGWL85hUNwXz9sOza9Z8cxQWvl8UFJVAPG_rGRL6jj9s-gyA3izvFah9Nn6LEoDIBfX76fgSYoGJlWGT9R5W21CkTCeXdBh9OWzk7TtXxqFkhQIzrntElMhQIAw9mIeXj5dOiN499ok9S9slKd05ExOsRUybW-fREYg6ElGggz_XTHQX9U1MHK14TBG2js9PyJlt_empRU4XrZ4x0iIdNZdzXQovIcJTcWfkzBZ2hXVgMonsaTP7cDGwOsHCTw-bV00c6QvsE_Lh2qj3R-vnd9fxhvUhYTEcq7PFKiD9oKAWZSi3CCWw5_7iP9x03Ksv9nDgOaKu12SE4WbGXzF-gudhygg_a9rBSwqxmlvtKrcrMI7dPxtM7tjDDPAy8uQx8PfOzZyMiKD9tBsdZLGpyCiTyV-BRTi7luR2TZWdGapGMH-cd1aNNm-hwR-4El5rqCpyBaQ1YV1a5u_jp8naJDSzI1t9oW6wAkGCx6OtBh81iz7iOIkZc8CusoLP5QFuv7IH9L2kSl]--></g></svg>