<svg xmlns="http://www.w3.org/2000/svg" xmlns:xlink="http://www.w3.org/1999/xlink" contentStyleType="text/css" data-diagram-type="SEQUENCE" height="1400px" preserveAspectRatio="none" style="width:1290px;height:1400px;background:#FFFFFF;" version="1.1" viewBox="0 0 1290 1400" width="1290px" zoomAndPan="magnify"><title>Import-plan -&gt; preview-view -&gt; apply (merge-&#1089;&#1090;&#1088;&#1072;&#1090;&#1077;&#1075;&#1080;&#1080;)</title><defs/><g><text fill="#000000" font-family="sans-serif" font-size="14" font-weight="bold" lengthAdjust="spacing" textLength="450.4199" x="416.2593" y="27.9951">Import-plan -&gt; preview-view -&gt; apply (merge-&#1089;&#1090;&#1088;&#1072;&#1090;&#1077;&#1075;&#1080;&#1080;)</text><rect fill="none" height="367.6797" style="stroke:#000000;stroke-width:1.5;" width="697.5767" x="240.8037" y="906.0469"/><g><title>Client</title><rect fill="#000000" fill-opacity="0.00000" height="1201.2656" width="8" x="24.2651" y="118.5938"/><line style="stroke:#181818;stroke-width:0.5;stroke-dasharray:5.0,5.0;" x1="28" x2="28" y1="118.5938" y2="1319.8594"/></g><g><title>Demo Controller</title><rect fill="#000000" fill-opacity="0.00000" height="1201.2656" width="8" x="311.4136" y="118.5938"/><line style="stroke:#181818;stroke-width:0.5;stroke-dasharray:5.0,5.0;" x1="314.8037" x2="314.8037" y1="118.5938" y2="1319.8594"/></g><g><title>DttDemoService</title><rect fill="#000000" fill-opacity="0.00000" height="1201.2656" width="8" x="504.7246" y="118.5938"/><line style="stroke:#181818;stroke-width:0.5;stroke-dasharray:5.0,5.0;" x1="508.1763" x2="508.1763" y1="118.5938" y2="1319.8594"/></g><g><title>DeviceTemplateLibraryFacade</title><rect fill="#000000" fill-opacity="0.00000" height="1201.2656" width="8" x="810.6304" y="118.5938"/><line style="stroke:#181818;stroke-width:0.5;stroke-dasharray:5.0,5.0;" x1="813.8804" x2="813.8804" y1="118.5938" y2="1319.8594"/></g><g><title>TemplateAssemblyService</title><rect fill="#000000" fill-opacity="0.00000" height="1201.2656" width="8" x="1175.1987" y="118.5938"/><line style="stroke:#181818;stroke-width:0.5;stroke-dasharray:5.0,5.0;" x1="1178.459" x2="1178.459" y1="118.5938" y2="1319.8594"/></g><g class="participant participant-head" data-participant="Client"><text fill="#000000" font-family="sans-serif" font-size="14" lengthAdjust="spacing" textLength="40.5303" x="5" y="115.292">Client</text><ellipse cx="28.2651" cy="50.7969" fill="#E2E2F0" rx="8" ry="8" style="stroke:#181818;stroke-width:0.5;"/><path d="M28.2651,58.7969 L28.2651,85.7969 M15.2651,66.7969 L41.2651,66.7969 M28.2651,85.7969 L15.2651,100.7969 M28.2651,85.7969 L41.2651,100.7969" fill="none" style="stroke:#181818;stroke-width:0.5;"/></g><g class="participant participant-tail" data-participant="Client"><text fill="#000000" font-family="sans-serif" font-size="14" lengthAdjust="spacing" textLength="40.5303" x="5" y="1331.8545">Client</text><ellipse cx="28.2651" cy="1343.6563" fill="#E2E2F0" rx="8" ry="8" style="stroke:#181818;stroke-width:0.5;"/><path d="M28.2651,1351.6563 L28.2651,1378.6563 M15.2651,1359.6563 L41.2651,1359.6563 M28.2651,1378.6563 L15.2651,1393.6563 M28.2651,1378.6563 L41.2651,1393.6563" fill="none" style="stroke:#181818;stroke-width:0.5;"/></g><g class="participant participant-head" data-participant="C"><rect fill="#E2E2F0" height="30.2969" rx="2.5" ry="2.5" style="stroke:#181818;stroke-width:0.5;" width="129.2197" x="250.8037" y="87.2969"/><text fill="#000000" font-family="sans-serif" font-size="14" lengthAdjust="spacing" textLength="115.2197" x="257.8037" y="107.292">Demo Controller</text></g><g class="participant participant-tail" data-participant="C"><rect fill="#E2E2F0" height="30.2969" rx="2.5" ry="2.5" style="stroke:#181818;stroke-width:0.5;" width="129.2197" x="250.8037" y="1318.8594"/><text fill="#000000" font-family="sans-serif" font-size="14" lengthAdjust="spacing" textLength="115.2197" x="257.8037" y="1338.8545">Demo Controller</text></g><g class="participant participant-head" data-participant="S"><rect fill="#E2E2F0" height="30.2969" rx="2.5" ry="2.5" style="stroke:#181818;stroke-width:0.5;" width="129.0967" x="444.1763" y="87.2969"/><text fill="#000000" font-family="sans-serif" font-size="14" lengthAdjust="spacing" textLength="115.0967" x="451.1763" y="107.292">DttDemoService</text></g><g class="participant participant-tail" data-participant="S"><rect fill="#E2E2F0" height="30.2969" rx="2.5" ry="2.5" style="stroke:#181818;stroke-width:0.5;" width="129.0967" x="444.1763" y="1318.8594"/><text fill="#000000" font-family="sans-serif" font-size="14" lengthAdjust="spacing" textLength="115.0967" x="451.1763" y="1338.8545">DttDemoService</text></g><g class="participant participant-head" data-participant="F"><rect fill="#E2E2F0" height="30.2969" rx="2.5" ry="2.5" style="stroke:#181818;stroke-width:0.5;" width="227.5" x="700.8804" y="87.2969"/><text fill="#000000" font-family="sans-serif" font-size="14" lengthAdjust="spacing" textLength="213.5" x="707.8804" y="107.292">DeviceTemplateLibraryFacade</text></g><g class="participant participant-tail" data-participant="F"><rect fill="#E2E2F0" height="30.2969" rx="2.5" ry="2.5" style="stroke:#181818;stroke-width:0.5;" width="227.5" x="700.8804" y="1318.8594"/><text fill="#000000" font-family="sans-serif" font-size="14" lengthAdjust="spacing" textLength="213.5" x="707.8804" y="1338.8545">DeviceTemplateLibraryFacade</text></g><g class="participant participant-head" data-participant="A"><rect fill="#E2E2F0" height="30.2969" rx="2.5" ry="2.5" style="stroke:#181818;stroke-width:0.5;" width="199.4795" x="1079.459" y="87.2969"/><text fill="#000000" font-family="sans-serif" font-size="14" lengthAdjust="spacing" textLength="185.4795" x="1086.459" y="107.292">TemplateAssemblyService</text></g><g class="participant participant-tail" data-participant="A"><rect fill="#E2E2F0" height="30.2969" rx="2.5" ry="2.5" style="stroke:#181818;stroke-width:0.5;" width="199.4795" x="1079.459" y="1318.8594"/><text fill="#000000" font-family="sans-serif" font-size="14" lengthAdjust="spacing" textLength="185.4795" x="1086.459" y="1338.8545">TemplateAssemblyService</text></g><rect fill="#EEEEEE" height="3" style="stroke:#EEEEEE;stroke-width:1;" width="1283.9385" x="0" y="149.1602"/><line style="stroke:#000000;stroke-width:1;" x1="0" x2="1283.9385" y1="149.1602" y2="149.1602"/><line style="stroke:#000000;stroke-width:1;" x1="0" x2="1283.9385" y1="152.1602" y2="152.1602"/><rect fill="#EEEEEE" height="23.1328" style="stroke:#000000;stroke-width:2;" width="185.6533" x="549.1426" y="138.5938"/><text fill="#000000" font-family="sans-serif" font-size="13" font-weight="bold" lengthAdjust="spacing" textLength="167.1274" x="555.1426" y="154.6606">Profile/Branch preview</text><g class="message" data-participant-1="Client" data-participant-2="C"><polygon fill="#181818" points="303.4136,188.8594,313.4136,192.8594,303.4136,196.8594,307.4136,192.8594" style="stroke:#181818;stroke-width:1;"/><line style="stroke:#181818;stroke-width:1;" x1="28.2651" x2="309.4136" y1="192.8594" y2="192.8594"/><text fill="#000000" font-family="sans-serif" font-size="13" lengthAdjust="spacing" textLength="166.2197" x="35.2651" y="187.7935">POST /preview/structured</text></g><g class="message" data-participant-1="C" data-participant-2="S"><polygon fill="#181818" points="496.7246,217.9922,506.7246,221.9922,496.7246,225.9922,500.7246,221.9922" style="stroke:#181818;stroke-width:1;"/><line style="stroke:#181818;stroke-width:1;" x1="315.4136" x2="502.7246" y1="221.9922" y2="221.9922"/><text fill="#000000" font-family="sans-serif" font-size="13" lengthAdjust="spacing" textLength="130.2158" x="322.4136" y="216.9263">preview*Import*(...)</text></g><g class="message" data-participant-1="S" data-participant-2="F"><polygon fill="#181818" points="802.6304,262.2578,812.6304,266.2578,802.6304,270.2578,806.6304,266.2578" style="stroke:#181818;stroke-width:1;"/><line style="stroke:#181818;stroke-width:1;" x1="508.7246" x2="808.6304" y1="266.2578" y2="266.2578"/><text fill="#000000" font-family="sans-serif" font-size="13" lengthAdjust="spacing" textLength="197.7993" x="515.7246" y="246.0591">previewProfileImportView(...) /</text><text fill="#000000" font-family="sans-serif" font-size="13" lengthAdjust="spacing" textLength="194.2065" x="515.7246" y="261.1919">previewBranchImportView(...)</text></g><g class="message" data-participant-1="F" data-participant-2="A"><polygon fill="#181818" points="1167.1987,291.3906,1177.1987,295.3906,1167.1987,299.3906,1171.1987,295.3906" style="stroke:#181818;stroke-width:1;"/><line style="stroke:#181818;stroke-width:1;" x1="814.6304" x2="1173.1987" y1="295.3906" y2="295.3906"/><text fill="#000000" font-family="sans-serif" font-size="13" lengthAdjust="spacing" textLength="178.7817" x="821.6304" y="290.3247">prepare + computePreview</text></g><g class="message" data-participant-1="F" data-participant-2="S"><polygon fill="#181818" points="519.7246,335.6563,509.7246,339.6563,519.7246,343.6563,515.7246,339.6563" style="stroke:#181818;stroke-width:1;"/><line style="stroke:#181818;stroke-width:1;stroke-dasharray:2.0,2.0;" x1="513.7246" x2="813.6304" y1="339.6563" y2="339.6563"/><ellipse cx="531.2246" cy="315.0234" fill="#000000" rx="2.5" ry="2.5"/><text fill="#000000" font-family="sans-serif" font-size="13" lengthAdjust="spacing" textLength="82.2529" x="537.7246" y="319.4575">PreviewView</text><text fill="#000000" font-family="sans-serif" font-size="13" lengthAdjust="spacing" textLength="207.4795" x="525.7246" y="334.5903">(json + counts + computations)</text></g><g class="message" data-participant-1="S" data-participant-2="C"><polygon fill="#181818" points="326.4136,364.7891,316.4136,368.7891,326.4136,372.7891,322.4136,368.7891" style="stroke:#181818;stroke-width:1;"/><line style="stroke:#181818;stroke-width:1;stroke-dasharray:2.0,2.0;" x1="320.4136" x2="507.7246" y1="368.7891" y2="368.7891"/><text fill="#000000" font-family="sans-serif" font-size="13" lengthAdjust="spacing" textLength="147.3101" x="332.4136" y="363.7231">preview response DTO</text></g><g class="message" data-participant-1="C" data-participant-2="Client"><polygon fill="#181818" points="39.2651,393.9219,29.2651,397.9219,39.2651,401.9219,35.2651,397.9219" style="stroke:#181818;stroke-width:1;"/><line style="stroke:#181818;stroke-width:1;stroke-dasharray:2.0,2.0;" x1="33.2651" x2="314.4136" y1="397.9219" y2="397.9219"/><text fill="#000000" font-family="sans-serif" font-size="13" lengthAdjust="spacing" textLength="47.7026" x="45.2651" y="392.856">200 OK</text></g><rect fill="#EEEEEE" height="3" style="stroke:#EEEEEE;stroke-width:1;" width="1283.9385" x="0" y="426.4883"/><line style="stroke:#000000;stroke-width:1;" x1="0" x2="1283.9385" y1="426.4883" y2="426.4883"/><line style="stroke:#000000;stroke-width:1;" x1="0" x2="1283.9385" y1="429.4883" y2="429.4883"/><rect fill="#EEEEEE" height="23.1328" style="stroke:#000000;stroke-width:2;" width="243.0679" x="520.4353" y="415.9219"/><text fill="#000000" font-family="sans-serif" font-size="13" font-weight="bold" lengthAdjust="spacing" textLength="224.542" x="526.4353" y="431.9888">Apply (&#1085;&#1086;&#1074;&#1099;&#1081; import-plan API)</text><g class="message" data-participant-1="Client" data-participant-2="C"><polygon fill="#181818" points="303.4136,466.1875,313.4136,470.1875,303.4136,474.1875,307.4136,470.1875" style="stroke:#181818;stroke-width:1;"/><line style="stroke:#181818;stroke-width:1;" x1="28.2651" x2="309.4136" y1="470.1875" y2="470.1875"/><text fill="#000000" font-family="sans-serif" font-size="13" lengthAdjust="spacing" textLength="157.6123" x="35.2651" y="465.1216">POST /import/structured</text></g><g class="message" data-participant-1="C" data-participant-2="S"><polygon fill="#181818" points="496.7246,495.3203,506.7246,499.3203,496.7246,503.3203,500.7246,499.3203" style="stroke:#181818;stroke-width:1;"/><line style="stroke:#181818;stroke-width:1;" x1="315.4136" x2="502.7246" y1="499.3203" y2="499.3203"/><text fill="#000000" font-family="sans-serif" font-size="13" lengthAdjust="spacing" textLength="140.9751" x="322.4136" y="494.2544">import*Structured(...)</text></g><g class="message" data-participant-1="S" data-participant-2="F"><polygon fill="#181818" points="802.6304,524.4531,812.6304,528.4531,802.6304,532.4531,806.6304,528.4531" style="stroke:#181818;stroke-width:1;"/><line style="stroke:#181818;stroke-width:1;" x1="508.7246" x2="808.6304" y1="528.4531" y2="528.4531"/><text fill="#000000" font-family="sans-serif" font-size="13" lengthAdjust="spacing" textLength="158.9136" x="515.7246" y="523.3872">assemble*ApplyView(...)</text></g><g class="message" data-participant-1="F" data-participant-2="A"><polygon fill="#181818" points="1167.1987,553.5859,1177.1987,557.5859,1167.1987,561.5859,1171.1987,557.5859" style="stroke:#181818;stroke-width:1;"/><line style="stroke:#181818;stroke-width:1;" x1="814.6304" x2="1173.1987" y1="557.5859" y2="557.5859"/><text fill="#000000" font-family="sans-serif" font-size="13" lengthAdjust="spacing" textLength="74.4326" x="821.6304" y="552.52">assemble...</text></g><g class="message" data-participant-1="F" data-participant-2="A"><polygon fill="#181818" points="1167.1987,582.7188,1177.1987,586.7188,1167.1987,590.7188,1171.1987,586.7188" style="stroke:#181818;stroke-width:1;"/><line style="stroke:#181818;stroke-width:1;" x1="814.6304" x2="1173.1987" y1="586.7188" y2="586.7188"/><text fill="#000000" font-family="sans-serif" font-size="13" lengthAdjust="spacing" textLength="214.2969" x="821.6304" y="581.6528">computePreview(for diagnostics)</text></g><g class="message" data-participant-1="F" data-participant-2="S"><polygon fill="#181818" points="519.7246,626.9844,509.7246,630.9844,519.7246,634.9844,515.7246,630.9844" style="stroke:#181818;stroke-width:1;"/><line style="stroke:#181818;stroke-width:1;stroke-dasharray:2.0,2.0;" x1="513.7246" x2="813.6304" y1="630.9844" y2="630.9844"/><ellipse cx="531.2246" cy="606.3516" fill="#000000" rx="2.5" ry="2.5"/><text fill="#000000" font-family="sans-serif" font-size="13" lengthAdjust="spacing" textLength="67.8374" x="537.7246" y="610.7856">ApplyView</text><text fill="#000000" font-family="sans-serif" font-size="13" lengthAdjust="spacing" textLength="207.4795" x="525.7246" y="625.9185">(json + counts + computations)</text></g><g class="message" data-participant-1="S" data-participant-2="C"><polygon fill="#181818" points="326.4136,656.1172,316.4136,660.1172,326.4136,664.1172,322.4136,660.1172" style="stroke:#181818;stroke-width:1;"/><line style="stroke:#181818;stroke-width:1;stroke-dasharray:2.0,2.0;" x1="320.4136" x2="507.7246" y1="660.1172" y2="660.1172"/><text fill="#000000" font-family="sans-serif" font-size="13" lengthAdjust="spacing" textLength="131.5552" x="332.4136" y="655.0513">apply response DTO</text></g><g class="message" data-participant-1="C" data-participant-2="Client"><polygon fill="#181818" points="39.2651,685.25,29.2651,689.25,39.2651,693.25,35.2651,689.25" style="stroke:#181818;stroke-width:1;"/><line style="stroke:#181818;stroke-width:1;stroke-dasharray:2.0,2.0;" x1="33.2651" x2="314.4136" y1="689.25" y2="689.25"/><text fill="#000000" font-family="sans-serif" font-size="13" lengthAdjust="spacing" textLength="47.7026" x="45.2651" y="684.1841">200 OK</text></g><rect fill="#EEEEEE" height="3" style="stroke:#EEEEEE;stroke-width:1;" width="1283.9385" x="0" y="717.8164"/><line style="stroke:#000000;stroke-width:1;" x1="0" x2="1283.9385" y1="717.8164" y2="717.8164"/><line style="stroke:#000000;stroke-width:1;" x1="0" x2="1283.9385" y1="720.8164" y2="720.8164"/><rect fill="#EEEEEE" height="23.1328" style="stroke:#000000;stroke-width:2;" width="236.606" x="523.6663" y="707.25"/><text fill="#000000" font-family="sans-serif" font-size="13" font-weight="bold" lengthAdjust="spacing" textLength="218.0801" x="529.6663" y="723.3169">Merge &#1074; existing branch JSON</text><g class="message" data-participant-1="Client" data-participant-2="C"><polygon fill="#181818" points="303.4136,757.5156,313.4136,761.5156,303.4136,765.5156,307.4136,761.5156" style="stroke:#181818;stroke-width:1;"/><line style="stroke:#181818;stroke-width:1;" x1="28.2651" x2="309.4136" y1="761.5156" y2="761.5156"/><text fill="#000000" font-family="sans-serif" font-size="13" lengthAdjust="spacing" textLength="263.1484" x="35.2651" y="756.4497">POST /import/existing-branch/structured</text></g><g class="message" data-participant-1="C" data-participant-2="S"><polygon fill="#181818" points="496.7246,786.6484,506.7246,790.6484,496.7246,794.6484,500.7246,790.6484" style="stroke:#181818;stroke-width:1;"/><line style="stroke:#181818;stroke-width:1;" x1="315.4136" x2="502.7246" y1="790.6484" y2="790.6484"/><text fill="#000000" font-family="sans-serif" font-size="13" lengthAdjust="spacing" textLength="169.311" x="322.4136" y="785.5825">import*ExistingBranch(...)</text></g><g class="message" data-participant-1="S" data-participant-2="F"><polygon fill="#181818" points="802.6304,815.7813,812.6304,819.7813,802.6304,823.7813,806.6304,819.7813" style="stroke:#181818;stroke-width:1;"/><line style="stroke:#181818;stroke-width:1;" x1="508.7246" x2="808.6304" y1="819.7813" y2="819.7813"/><text fill="#000000" font-family="sans-serif" font-size="13" lengthAdjust="spacing" textLength="281.9058" x="515.7246" y="814.7153">mergeIntoExistingBranchJsonApplyView(...)</text></g><g class="message" data-participant-1="F" data-participant-2="A"><polygon fill="#181818" points="1167.1987,844.9141,1177.1987,848.9141,1167.1987,852.9141,1171.1987,848.9141" style="stroke:#181818;stroke-width:1;"/><line style="stroke:#181818;stroke-width:1;" x1="814.6304" x2="1173.1987" y1="848.9141" y2="848.9141"/><text fill="#000000" font-family="sans-serif" font-size="13" lengthAdjust="spacing" textLength="175.208" x="821.6304" y="843.8481">assemble incoming branch</text></g><g class="message" data-participant-1="F" data-participant-2="F"><line style="stroke:#181818;stroke-width:1;" x1="814.6304" x2="856.6304" y1="878.0469" y2="878.0469"/><line style="stroke:#181818;stroke-width:1;" x1="856.6304" x2="856.6304" y1="878.0469" y2="891.0469"/><line style="stroke:#181818;stroke-width:1;" x1="815.6304" x2="856.6304" y1="891.0469" y2="891.0469"/><polygon fill="#181818" points="825.6304,887.0469,815.6304,891.0469,825.6304,895.0469,821.6304,891.0469" style="stroke:#181818;stroke-width:1;"/><text fill="#000000" font-family="sans-serif" font-size="13" lengthAdjust="spacing" textLength="350.5684" x="821.6304" y="872.981">mergeBranchEquipment(existing, incoming, strategy)</text></g><path d="M240.8037,906.0469 L305.2466,906.0469 L305.2466,913.1797 L295.2466,923.1797 L240.8037,923.1797 L240.8037,906.0469" fill="#EEEEEE" style="stroke:#000000;stroke-width:1.5;"/><rect fill="none" height="367.6797" style="stroke:#000000;stroke-width:1.5;" width="697.5767" x="240.8037" y="906.0469"/><text fill="#000000" font-family="sans-serif" font-size="13" font-weight="bold" lengthAdjust="spacing" textLength="19.4429" x="255.8037" y="919.1138">alt</text><text fill="#000000" font-family="sans-serif" font-size="11" font-weight="bold" lengthAdjust="spacing" textLength="103.2271" x="320.2466" y="918.2573">[FAIL_IF_EXISTS]</text><g class="message" data-participant-1="F" data-participant-2="S"><polygon fill="#181818" points="519.7246,940.3125,509.7246,944.3125,519.7246,948.3125,515.7246,944.3125" style="stroke:#181818;stroke-width:1;"/><line style="stroke:#181818;stroke-width:1;stroke-dasharray:2.0,2.0;" x1="513.7246" x2="813.6304" y1="944.3125" y2="944.3125"/><text fill="#000000" font-family="sans-serif" font-size="13" lengthAdjust="spacing" textLength="250.0532" x="525.7246" y="939.2466">TemplateAssemblyException (conflict)</text></g><g class="message" data-participant-1="S" data-participant-2="C"><polygon fill="#181818" points="326.4136,969.4453,316.4136,973.4453,326.4136,977.4453,322.4136,973.4453" style="stroke:#181818;stroke-width:1;"/><line style="stroke:#181818;stroke-width:1;stroke-dasharray:2.0,2.0;" x1="320.4136" x2="507.7246" y1="973.4453" y2="973.4453"/><text fill="#000000" font-family="sans-serif" font-size="13" lengthAdjust="spacing" textLength="93.5518" x="332.4136" y="968.3794">409 CONFLICT</text></g><line style="stroke:#000000;stroke-width:1;stroke-dasharray:2.0,2.0;" x1="240.8037" x2="938.3804" y1="982.4453" y2="982.4453"/><text fill="#000000" font-family="sans-serif" font-size="11" font-weight="bold" lengthAdjust="spacing" textLength="65.2104" x="245.8037" y="992.6558">[REPLACE]</text><g class="message" data-participant-1="F" data-participant-2="S"><polygon fill="#181818" points="519.7246,1013.3828,509.7246,1017.3828,519.7246,1021.3828,515.7246,1017.3828" style="stroke:#181818;stroke-width:1;"/><line style="stroke:#181818;stroke-width:1;stroke-dasharray:2.0,2.0;" x1="513.7246" x2="813.6304" y1="1017.3828" y2="1017.3828"/><text fill="#000000" font-family="sans-serif" font-size="13" lengthAdjust="spacing" textLength="245.229" x="525.7246" y="1012.3169">existing branch replaced by incoming</text></g><g class="message" data-participant-1="S" data-participant-2="C"><polygon fill="#181818" points="326.4136,1042.5156,316.4136,1046.5156,326.4136,1050.5156,322.4136,1046.5156" style="stroke:#181818;stroke-width:1;"/><line style="stroke:#181818;stroke-width:1;stroke-dasharray:2.0,2.0;" x1="320.4136" x2="507.7246" y1="1046.5156" y2="1046.5156"/><text fill="#000000" font-family="sans-serif" font-size="13" lengthAdjust="spacing" textLength="153.5435" x="332.4136" y="1041.4497">200 OK + merged JSON</text></g><line style="stroke:#000000;stroke-width:1;stroke-dasharray:2.0,2.0;" x1="240.8037" x2="938.3804" y1="1055.5156" y2="1055.5156"/><text fill="#000000" font-family="sans-serif" font-size="11" font-weight="bold" lengthAdjust="spacing" textLength="132.3706" x="245.8037" y="1065.7261">[MERGE_NON_NULLS]</text><g class="message" data-participant-1="F" data-participant-2="S"><polygon fill="#181818" points="519.7246,1086.4531,509.7246,1090.4531,519.7246,1094.4531,515.7246,1090.4531" style="stroke:#181818;stroke-width:1;"/><line style="stroke:#181818;stroke-width:1;stroke-dasharray:2.0,2.0;" x1="513.7246" x2="813.6304" y1="1090.4531" y2="1090.4531"/><text fill="#000000" font-family="sans-serif" font-size="13" lengthAdjust="spacing" textLength="231.2515" x="525.7246" y="1085.3872">incoming non-null overlays existing</text></g><g class="message" data-participant-1="S" data-participant-2="C"><polygon fill="#181818" points="326.4136,1115.5859,316.4136,1119.5859,326.4136,1123.5859,322.4136,1119.5859" style="stroke:#181818;stroke-width:1;"/><line style="stroke:#181818;stroke-width:1;stroke-dasharray:2.0,2.0;" x1="320.4136" x2="507.7246" y1="1119.5859" y2="1119.5859"/><text fill="#000000" font-family="sans-serif" font-size="13" lengthAdjust="spacing" textLength="153.5435" x="332.4136" y="1114.52">200 OK + merged JSON</text></g><line style="stroke:#000000;stroke-width:1;stroke-dasharray:2.0,2.0;" x1="240.8037" x2="938.3804" y1="1128.5859" y2="1128.5859"/><text fill="#000000" font-family="sans-serif" font-size="11" font-weight="bold" lengthAdjust="spacing" textLength="186.3501" x="245.8037" y="1138.7964">[MERGE_PRESERVE_EXISTING]</text><g class="message" data-participant-1="F" data-participant-2="S"><polygon fill="#181818" points="519.7246,1159.5234,509.7246,1163.5234,519.7246,1167.5234,515.7246,1163.5234" style="stroke:#181818;stroke-width:1;"/><line style="stroke:#181818;stroke-width:1;stroke-dasharray:2.0,2.0;" x1="513.7246" x2="813.6304" y1="1163.5234" y2="1163.5234"/><text fill="#000000" font-family="sans-serif" font-size="13" lengthAdjust="spacing" textLength="167.4766" x="525.7246" y="1158.4575">existing values preserved</text></g><g class="message" data-participant-1="S" data-participant-2="C"><polygon fill="#181818" points="326.4136,1188.6563,316.4136,1192.6563,326.4136,1196.6563,322.4136,1192.6563" style="stroke:#181818;stroke-width:1;"/><line style="stroke:#181818;stroke-width:1;stroke-dasharray:2.0,2.0;" x1="320.4136" x2="507.7246" y1="1192.6563" y2="1192.6563"/><text fill="#000000" font-family="sans-serif" font-size="13" lengthAdjust="spacing" textLength="153.5435" x="332.4136" y="1187.5903">200 OK + merged JSON</text></g><line style="stroke:#000000;stroke-width:1;stroke-dasharray:2.0,2.0;" x1="240.8037" x2="938.3804" y1="1201.6563" y2="1201.6563"/><text fill="#000000" font-family="sans-serif" font-size="11" font-weight="bold" lengthAdjust="spacing" textLength="184.9858" x="245.8037" y="1211.8667">[CREATE_COPY_WITH_SUFFIX]</text><g class="message" data-participant-1="F" data-participant-2="S"><polygon fill="#181818" points="519.7246,1232.5938,509.7246,1236.5938,519.7246,1240.5938,515.7246,1236.5938" style="stroke:#181818;stroke-width:1;"/><line style="stroke:#181818;stroke-width:1;stroke-dasharray:2.0,2.0;" x1="513.7246" x2="813.6304" y1="1236.5938" y2="1236.5938"/><text fill="#000000" font-family="sans-serif" font-size="13" lengthAdjust="spacing" textLength="244.5371" x="525.7246" y="1231.5278">conflicting type duplicated with suffix</text></g><g class="message" data-participant-1="S" data-participant-2="C"><polygon fill="#181818" points="326.4136,1261.7266,316.4136,1265.7266,326.4136,1269.7266,322.4136,1265.7266" style="stroke:#181818;stroke-width:1;"/><line style="stroke:#181818;stroke-width:1;stroke-dasharray:2.0,2.0;" x1="320.4136" x2="507.7246" y1="1265.7266" y2="1265.7266"/><text fill="#000000" font-family="sans-serif" font-size="13" lengthAdjust="spacing" textLength="153.5435" x="332.4136" y="1260.6606">200 OK + merged JSON</text></g><g class="message" data-participant-1="C" data-participant-2="Client"><polygon fill="#181818" points="39.2651,1297.8594,29.2651,1301.8594,39.2651,1305.8594,35.2651,1301.8594" style="stroke:#181818;stroke-width:1;"/><line style="stroke:#181818;stroke-width:1;stroke-dasharray:2.0,2.0;" x1="33.2651" x2="314.4136" y1="1301.8594" y2="1301.8594"/><text fill="#000000" font-family="sans-serif" font-size="13" lengthAdjust="spacing" textLength="96.9604" x="45.2651" y="1296.7935">HTTP response</text></g><!--SRC=[bLJ1RjD04BtxAqOz9Q5fAiI5Ia4ohjswXDYAtLAaIj76tgIBDckpNgVr3NhbPr0HKZd0DpX_nAutDaaeRRb4yiwRD_FUp4GGGJ6uypJXefjInA3x2bAE5mHVTTMF-aPfIWjepJ6VuUxoy_9c-QdykhmflvVVohlohcqOA1891uiIp8IH8Yv8H5B41EmSuda2Li84JoZ5V0TG1jOMH0Y52Z1Va0XNY62RH4L2F9ST2ZmW4uvuuQ08nHhkRC9he9bbU3wXnJgpQHZzFlWycHAAUwyvOj5bBHZwVKDhKAgj0_2z88JUAjhB1CyZaNCS6vO210TrOaSRs6djxUsrZK05dIQuggKXP_AXGa7lWgq0kecjkE4e5hDYaU8mF8CecQUvmBxEKW3TH6Vred8lMEj3bh0AdJEHDMb8a8HbLNDQMwsPuooL4Go7eQTqgMZbmG4ytzy7xqrbcAbNeFnP_Yflbr_A7q3MTiRqtVO_pDEm-xpJaKxGH3RTGtfuk5EL_jkNEYuVcxTDXrfJkPCnGJEMP78vilQQPGtfqmtJL_0qkzwgKu7o5l0raRNP32Pwqqu2R_YmKtL6LsSyu9ozGkhzsNIlkbMNYMGJT2AbFk8d42OD-DEo1jIKciR-c9DqBWMqwcvtcxHTa1tBuviLwd-12d1CTp1sdR5zxWPXO00qKzY-K_iwmgco7LfHmgQKHA8jySq4Nko_1CiREWFN2WrCvH16jZymBNkTTDjnUJuKHJY6IT7qk4wgfoR7NkcBgmbfyhVswCWU3xtXU7Ww66nqtdZ44jPbEQMGB32dgCYQ-lzJmn_PWJqwixL7xl3eNa4BH7ESgSFDv1-Qt8SdLR16jXdQOylptu_VkU7nE3Xr7FTylK9jjYeYYXH3dAVoMqucXYiYBY7BfrDo_NWz5XjRDt4SXdvpCxy1]--></g></svg>